<?xml version="1.0" encoding="UTF-8" standalone="no"?>
<!DOCTYPE svg PUBLIC "-//W3C//DTD SVG 1.1//EN"
 "http://www.w3.org/Graphics/SVG/1.1/DTD/svg11.dtd">
<!-- Generated by graphviz version 2.49.3 (20211023.0002)
 -->
<!-- Title: List Pages: 1 -->
<svg width="330pt" height="1217pt"
 viewBox="0.00 0.00 329.50 1217.00" xmlns="http://www.w3.org/2000/svg" xmlns:xlink="http://www.w3.org/1999/xlink">
<g id="graph0" class="graph" transform="scale(1 1) rotate(0) translate(4 1213)">
<title>List</title>
<polygon fill="white" stroke="transparent" points="-4,4 -4,-1213 325.5,-1213 325.5,4 -4,4"/>
<!-- Node0 -->
<g id="node1" class="node">
<title>Node0</title>
<polygon fill="orange" stroke="black" points="45.5,-1162.5 45.5,-1208.5 132.5,-1208.5 132.5,-1162.5 45.5,-1162.5"/>
<text text-anchor="middle" x="57" y="-1181.8" font-family="Times New Roman,serif" font-size="14.00">2</text>
<polyline fill="none" stroke="black" points="68.5,-1162.5 68.5,-1208.5 "/>
<text text-anchor="middle" x="89" y="-1193.3" font-family="Times New Roman,serif" font-size="14.00">0</text>
<polyline fill="none" stroke="black" points="68.5,-1185.5 109.5,-1185.5 "/>
<text text-anchor="middle" x="89" y="-1170.3" font-family="Times New Roman,serif" font-size="14.00">&#45;663</text>
<polyline fill="none" stroke="black" points="109.5,-1162.5 109.5,-1208.5 "/>
<text text-anchor="middle" x="121" y="-1181.8" font-family="Times New Roman,serif" font-size="14.00">1</text>
</g>
<!-- Node1 -->
<g id="node2" class="node">
<title>Node1</title>
<polygon fill="none" stroke="black" points="66.5,-1079.5 66.5,-1125.5 135.5,-1125.5 135.5,-1079.5 66.5,-1079.5"/>
<text text-anchor="middle" x="78" y="-1098.8" font-family="Times New Roman,serif" font-size="14.00">0</text>
<polyline fill="none" stroke="black" points="89.5,-1079.5 89.5,-1125.5 "/>
<text text-anchor="middle" x="101" y="-1110.3" font-family="Times New Roman,serif" font-size="14.00">1</text>
<polyline fill="none" stroke="black" points="89.5,-1102.5 112.5,-1102.5 "/>
<text text-anchor="middle" x="101" y="-1087.3" font-family="Times New Roman,serif" font-size="14.00">1</text>
<polyline fill="none" stroke="black" points="112.5,-1079.5 112.5,-1125.5 "/>
<text text-anchor="middle" x="124" y="-1098.8" font-family="Times New Roman,serif" font-size="14.00">3</text>
</g>
<!-- Node0&#45;&gt;Node1 -->
<!-- Node0&#45;&gt;Node1 -->
<g id="edge16" class="edge">
<title>Node0:nn0&#45;&gt;Node1</title>
<path fill="none" stroke="chartreuse" d="M121,-1162C121,-1153.05 118.88,-1143.73 116.02,-1135.22"/>
<polygon fill="chartreuse" stroke="chartreuse" points="119.22,-1133.79 112.4,-1125.68 112.67,-1136.27 119.22,-1133.79"/>
</g>
<!-- Node2 -->
<g id="node3" class="node">
<title>Node2</title>
<polygon fill="none" stroke="black" points="38.5,-498.5 38.5,-544.5 121.5,-544.5 121.5,-498.5 38.5,-498.5"/>
<text text-anchor="middle" x="50" y="-517.8" font-family="Times New Roman,serif" font-size="14.00">8</text>
<polyline fill="none" stroke="black" points="61.5,-498.5 61.5,-544.5 "/>
<text text-anchor="middle" x="80" y="-529.3" font-family="Times New Roman,serif" font-size="14.00">2</text>
<polyline fill="none" stroke="black" points="61.5,-521.5 98.5,-521.5 "/>
<text text-anchor="middle" x="80" y="-506.3" font-family="Times New Roman,serif" font-size="14.00">999</text>
<polyline fill="none" stroke="black" points="98.5,-498.5 98.5,-544.5 "/>
<text text-anchor="middle" x="110" y="-517.8" font-family="Times New Roman,serif" font-size="14.00">0</text>
</g>
<!-- Node0&#45;&gt;Node2 -->
<g id="edge17" class="edge">
<title>Node0:np0&#45;&gt;Node2</title>
<path fill="none" stroke="red" d="M57,-1162C57,-1098.55 38,-1083.95 38,-1020.5 38,-1020.5 38,-1020.5 38,-686.5 38,-639.22 54.58,-586.61 66.91,-554.03"/>
<polygon fill="red" stroke="red" points="70.22,-555.18 70.57,-544.59 63.69,-552.64 70.22,-555.18"/>
</g>
<!-- Node1&#45;&gt;Node0 -->
<g id="edge19" class="edge">
<title>Node1:np1&#45;&gt;Node0</title>
<path fill="none" stroke="red" d="M78,-1126C78,-1134.67 79.18,-1143.94 80.77,-1152.48"/>
<polygon fill="red" stroke="red" points="77.38,-1153.39 82.86,-1162.46 84.23,-1151.96 77.38,-1153.39"/>
</g>
<!-- Node1&#45;&gt;Node2 -->
<!-- Node3 -->
<g id="node4" class="node">
<title>Node3</title>
<polygon fill="none" stroke="black" points="85.5,-996.5 85.5,-1042.5 154.5,-1042.5 154.5,-996.5 85.5,-996.5"/>
<text text-anchor="middle" x="97" y="-1015.8" font-family="Times New Roman,serif" font-size="14.00">1</text>
<polyline fill="none" stroke="black" points="108.5,-996.5 108.5,-1042.5 "/>
<text text-anchor="middle" x="120" y="-1027.3" font-family="Times New Roman,serif" font-size="14.00">3</text>
<polyline fill="none" stroke="black" points="108.5,-1019.5 131.5,-1019.5 "/>
<text text-anchor="middle" x="120" y="-1004.3" font-family="Times New Roman,serif" font-size="14.00">3</text>
<polyline fill="none" stroke="black" points="131.5,-996.5 131.5,-1042.5 "/>
<text text-anchor="middle" x="143" y="-1015.8" font-family="Times New Roman,serif" font-size="14.00">4</text>
</g>
<!-- Node1&#45;&gt;Node3 -->
<g id="edge18" class="edge">
<title>Node1:nn1&#45;&gt;Node3</title>
<path fill="none" stroke="chartreuse" d="M124,-1079C124,-1070.46 123.57,-1061.23 122.99,-1052.69"/>
<polygon fill="chartreuse" stroke="chartreuse" points="126.48,-1052.4 122.23,-1042.7 119.5,-1052.94 126.48,-1052.4"/>
</g>
<!-- Node2&#45;&gt;Node0 -->
<g id="edge20" class="edge">
<title>Node2:nn2&#45;&gt;Node0</title>
<path fill="none" stroke="chartreuse" d="M110,-545C110,-580.78 160.43,-552.46 182,-581 210.78,-619.07 202,-638.78 202,-686.5 202,-1020.5 202,-1020.5 202,-1020.5 202,-1075.56 158.28,-1125.57 125.23,-1155.52"/>
<polygon fill="chartreuse" stroke="chartreuse" points="122.7,-1153.08 117.51,-1162.33 127.33,-1158.33 122.7,-1153.08"/>
</g>
<!-- Node2&#45;&gt;Node3 -->
<!-- Node8 -->
<g id="node9" class="node">
<title>Node8</title>
<polygon fill="none" stroke="black" points="104.5,-581.5 104.5,-627.5 173.5,-627.5 173.5,-581.5 104.5,-581.5"/>
<text text-anchor="middle" x="116" y="-600.8" font-family="Times New Roman,serif" font-size="14.00">7</text>
<polyline fill="none" stroke="black" points="127.5,-581.5 127.5,-627.5 "/>
<text text-anchor="middle" x="139" y="-612.3" font-family="Times New Roman,serif" font-size="14.00">8</text>
<polyline fill="none" stroke="black" points="127.5,-604.5 150.5,-604.5 "/>
<text text-anchor="middle" x="139" y="-589.3" font-family="Times New Roman,serif" font-size="14.00">8</text>
<polyline fill="none" stroke="black" points="150.5,-581.5 150.5,-627.5 "/>
<text text-anchor="middle" x="162" y="-600.8" font-family="Times New Roman,serif" font-size="14.00">2</text>
</g>
<!-- Node2&#45;&gt;Node8 -->
<g id="edge21" class="edge">
<title>Node2:np2&#45;&gt;Node8</title>
<path fill="none" stroke="red" d="M50,-545C50,-556.94 72.67,-571.73 95.13,-583.45"/>
<polygon fill="red" stroke="red" points="93.83,-586.72 104.34,-588.11 96.99,-580.47 93.83,-586.72"/>
</g>
<!-- Node3&#45;&gt;Node1 -->
<g id="edge23" class="edge">
<title>Node3:np3&#45;&gt;Node1</title>
<path fill="none" stroke="red" d="M97,-1043C97,-1051.54 97.43,-1060.77 98.01,-1069.31"/>
<polygon fill="red" stroke="red" points="94.52,-1069.6 98.77,-1079.3 101.5,-1069.06 94.52,-1069.6"/>
</g>
<!-- Node4 -->
<g id="node5" class="node">
<title>Node4</title>
<polygon fill="none" stroke="black" points="104.5,-913.5 104.5,-959.5 173.5,-959.5 173.5,-913.5 104.5,-913.5"/>
<text text-anchor="middle" x="116" y="-932.8" font-family="Times New Roman,serif" font-size="14.00">3</text>
<polyline fill="none" stroke="black" points="127.5,-913.5 127.5,-959.5 "/>
<text text-anchor="middle" x="139" y="-944.3" font-family="Times New Roman,serif" font-size="14.00">4</text>
<polyline fill="none" stroke="black" points="127.5,-936.5 150.5,-936.5 "/>
<text text-anchor="middle" x="139" y="-921.3" font-family="Times New Roman,serif" font-size="14.00">4</text>
<polyline fill="none" stroke="black" points="150.5,-913.5 150.5,-959.5 "/>
<text text-anchor="middle" x="162" y="-932.8" font-family="Times New Roman,serif" font-size="14.00">5</text>
</g>
<!-- Node3&#45;&gt;Node4 -->
<!-- Node3&#45;&gt;Node4 -->
<g id="edge22" class="edge">
<title>Node3:nn3&#45;&gt;Node4</title>
<path fill="none" stroke="chartreuse" d="M143,-996C143,-987.46 142.57,-978.23 141.99,-969.69"/>
<polygon fill="chartreuse" stroke="chartreuse" points="145.48,-969.4 141.23,-959.7 138.5,-969.94 145.48,-969.4"/>
</g>
<!-- Node4&#45;&gt;Node3 -->
<g id="edge25" class="edge">
<title>Node4:np4&#45;&gt;Node3</title>
<path fill="none" stroke="red" d="M116,-960C116,-968.54 116.43,-977.77 117.01,-986.31"/>
<polygon fill="red" stroke="red" points="113.52,-986.6 117.77,-996.3 120.5,-986.06 113.52,-986.6"/>
</g>
<!-- Node5 -->
<g id="node6" class="node">
<title>Node5</title>
<polygon fill="none" stroke="black" points="104.5,-830.5 104.5,-876.5 173.5,-876.5 173.5,-830.5 104.5,-830.5"/>
<text text-anchor="middle" x="116" y="-849.8" font-family="Times New Roman,serif" font-size="14.00">4</text>
<polyline fill="none" stroke="black" points="127.5,-830.5 127.5,-876.5 "/>
<text text-anchor="middle" x="139" y="-861.3" font-family="Times New Roman,serif" font-size="14.00">5</text>
<polyline fill="none" stroke="black" points="127.5,-853.5 150.5,-853.5 "/>
<text text-anchor="middle" x="139" y="-838.3" font-family="Times New Roman,serif" font-size="14.00">5</text>
<polyline fill="none" stroke="black" points="150.5,-830.5 150.5,-876.5 "/>
<text text-anchor="middle" x="162" y="-849.8" font-family="Times New Roman,serif" font-size="14.00">6</text>
</g>
<!-- Node4&#45;&gt;Node5 -->
<!-- Node4&#45;&gt;Node5 -->
<g id="edge24" class="edge">
<title>Node4:nn4&#45;&gt;Node5</title>
<path fill="none" stroke="chartreuse" d="M162,-913C162,-903.88 159.55,-894.48 156.25,-885.96"/>
<polygon fill="chartreuse" stroke="chartreuse" points="159.45,-884.54 152.25,-876.77 153.03,-887.34 159.45,-884.54"/>
</g>
<!-- Node5&#45;&gt;Node4 -->
<g id="edge27" class="edge">
<title>Node5:np5&#45;&gt;Node4</title>
<path fill="none" stroke="red" d="M116,-877C116,-886.12 118.45,-895.52 121.75,-904.04"/>
<polygon fill="red" stroke="red" points="118.55,-905.46 125.75,-913.23 124.97,-902.66 118.55,-905.46"/>
</g>
<!-- Node6 -->
<g id="node7" class="node">
<title>Node6</title>
<polygon fill="none" stroke="black" points="104.5,-747.5 104.5,-793.5 173.5,-793.5 173.5,-747.5 104.5,-747.5"/>
<text text-anchor="middle" x="116" y="-766.8" font-family="Times New Roman,serif" font-size="14.00">5</text>
<polyline fill="none" stroke="black" points="127.5,-747.5 127.5,-793.5 "/>
<text text-anchor="middle" x="139" y="-778.3" font-family="Times New Roman,serif" font-size="14.00">6</text>
<polyline fill="none" stroke="black" points="127.5,-770.5 150.5,-770.5 "/>
<text text-anchor="middle" x="139" y="-755.3" font-family="Times New Roman,serif" font-size="14.00">6</text>
<polyline fill="none" stroke="black" points="150.5,-747.5 150.5,-793.5 "/>
<text text-anchor="middle" x="162" y="-766.8" font-family="Times New Roman,serif" font-size="14.00">7</text>
</g>
<!-- Node5&#45;&gt;Node6 -->
<!-- Node5&#45;&gt;Node6 -->
<g id="edge26" class="edge">
<title>Node5:nn5&#45;&gt;Node6</title>
<path fill="none" stroke="chartreuse" d="M162,-830C162,-820.88 159.55,-811.48 156.25,-802.96"/>
<polygon fill="chartreuse" stroke="chartreuse" points="159.45,-801.54 152.25,-793.77 153.03,-804.34 159.45,-801.54"/>
</g>
<!-- Node6&#45;&gt;Node5 -->
<g id="edge29" class="edge">
<title>Node6:np6&#45;&gt;Node5</title>
<path fill="none" stroke="red" d="M116,-794C116,-803.12 118.45,-812.52 121.75,-821.04"/>
<polygon fill="red" stroke="red" points="118.55,-822.46 125.75,-830.23 124.97,-819.66 118.55,-822.46"/>
</g>
<!-- Node7 -->
<g id="node8" class="node">
<title>Node7</title>
<polygon fill="none" stroke="black" points="104.5,-664.5 104.5,-710.5 173.5,-710.5 173.5,-664.5 104.5,-664.5"/>
<text text-anchor="middle" x="116" y="-683.8" font-family="Times New Roman,serif" font-size="14.00">6</text>
<polyline fill="none" stroke="black" points="127.5,-664.5 127.5,-710.5 "/>
<text text-anchor="middle" x="139" y="-695.3" font-family="Times New Roman,serif" font-size="14.00">7</text>
<polyline fill="none" stroke="black" points="127.5,-687.5 150.5,-687.5 "/>
<text text-anchor="middle" x="139" y="-672.3" font-family="Times New Roman,serif" font-size="14.00">7</text>
<polyline fill="none" stroke="black" points="150.5,-664.5 150.5,-710.5 "/>
<text text-anchor="middle" x="162" y="-683.8" font-family="Times New Roman,serif" font-size="14.00">8</text>
</g>
<!-- Node6&#45;&gt;Node7 -->
<!-- Node6&#45;&gt;Node7 -->
<g id="edge28" class="edge">
<title>Node6:nn6&#45;&gt;Node7</title>
<path fill="none" stroke="chartreuse" d="M162,-747C162,-737.88 159.55,-728.48 156.25,-719.96"/>
<polygon fill="chartreuse" stroke="chartreuse" points="159.45,-718.54 152.25,-710.77 153.03,-721.34 159.45,-718.54"/>
</g>
<!-- Node7&#45;&gt;Node6 -->
<g id="edge31" class="edge">
<title>Node7:np7&#45;&gt;Node6</title>
<path fill="none" stroke="red" d="M116,-711C116,-720.12 118.45,-729.52 121.75,-738.04"/>
<polygon fill="red" stroke="red" points="118.55,-739.46 125.75,-747.23 124.97,-736.66 118.55,-739.46"/>
</g>
<!-- Node7&#45;&gt;Node8 -->
<!-- Node7&#45;&gt;Node8 -->
<g id="edge30" class="edge">
<title>Node7:nn7&#45;&gt;Node8</title>
<path fill="none" stroke="chartreuse" d="M162,-664C162,-654.88 159.55,-645.48 156.25,-636.96"/>
<polygon fill="chartreuse" stroke="chartreuse" points="159.45,-635.54 152.25,-627.77 153.03,-638.34 159.45,-635.54"/>
</g>
<!-- Node8&#45;&gt;Node2 -->
<g id="edge32" class="edge">
<title>Node8:nn8&#45;&gt;Node2</title>
<path fill="none" stroke="chartreuse" d="M162,-581C162,-562.41 147.86,-549.17 131.32,-540.04"/>
<polygon fill="chartreuse" stroke="chartreuse" points="132.47,-536.71 121.96,-535.39 129.36,-542.98 132.47,-536.71"/>
</g>
<!-- Node8&#45;&gt;Node7 -->
<g id="edge33" class="edge">
<title>Node8:np8&#45;&gt;Node7</title>
<path fill="none" stroke="red" d="M116,-628C116,-637.12 118.45,-646.52 121.75,-655.04"/>
<polygon fill="red" stroke="red" points="118.55,-656.46 125.75,-664.23 124.97,-653.66 118.55,-656.46"/>
</g>
<!-- Node9 -->
<g id="node10" class="node">
<title>Node9</title>
<polygon fill="none" stroke="black" points="158,-498.5 158,-544.5 270,-544.5 270,-498.5 158,-498.5"/>
<text text-anchor="middle" x="178.5" y="-517.8" font-family="Times New Roman,serif" font-size="14.00">&#45;663</text>
<polyline fill="none" stroke="black" points="199,-498.5 199,-544.5 "/>
<text text-anchor="middle" x="219.5" y="-529.3" font-family="Times New Roman,serif" font-size="14.00">9</text>
<polyline fill="none" stroke="black" points="199,-521.5 240,-521.5 "/>
<text text-anchor="middle" x="219.5" y="-506.3" font-family="Times New Roman,serif" font-size="14.00">&#45;663</text>
<polyline fill="none" stroke="black" points="240,-498.5 240,-544.5 "/>
<text text-anchor="middle" x="255" y="-517.8" font-family="Times New Roman,serif" font-size="14.00">10</text>
</g>
<!-- Node8&#45;&gt;Node9 -->
<!-- Node10 -->
<g id="node11" class="node">
<title>Node10</title>
<polygon fill="none" stroke="black" points="167,-415.5 167,-461.5 279,-461.5 279,-415.5 167,-415.5"/>
<text text-anchor="middle" x="187.5" y="-434.8" font-family="Times New Roman,serif" font-size="14.00">&#45;663</text>
<polyline fill="none" stroke="black" points="208,-415.5 208,-461.5 "/>
<text text-anchor="middle" x="228.5" y="-446.3" font-family="Times New Roman,serif" font-size="14.00">10</text>
<polyline fill="none" stroke="black" points="208,-438.5 249,-438.5 "/>
<text text-anchor="middle" x="228.5" y="-423.3" font-family="Times New Roman,serif" font-size="14.00">&#45;663</text>
<polyline fill="none" stroke="black" points="249,-415.5 249,-461.5 "/>
<text text-anchor="middle" x="264" y="-434.8" font-family="Times New Roman,serif" font-size="14.00">11</text>
</g>
<!-- Node9&#45;&gt;Node10 -->
<!-- Node9&#45;&gt;Node10 -->
<g id="edge34" class="edge">
<title>Node9:nn9&#45;&gt;Node10</title>
<path fill="none" stroke="black" d="M255,-498C255,-488.39 251.64,-478.87 247.09,-470.38"/>
<polygon fill="black" stroke="black" points="249.97,-468.37 241.8,-461.62 243.98,-471.99 249.97,-468.37"/>
</g>
<!-- Node11 -->
<g id="node12" class="node">
<title>Node11</title>
<polygon fill="none" stroke="black" points="168,-332.5 168,-378.5 280,-378.5 280,-332.5 168,-332.5"/>
<text text-anchor="middle" x="188.5" y="-351.8" font-family="Times New Roman,serif" font-size="14.00">&#45;663</text>
<polyline fill="none" stroke="black" points="209,-332.5 209,-378.5 "/>
<text text-anchor="middle" x="229.5" y="-363.3" font-family="Times New Roman,serif" font-size="14.00">11</text>
<polyline fill="none" stroke="black" points="209,-355.5 250,-355.5 "/>
<text text-anchor="middle" x="229.5" y="-340.3" font-family="Times New Roman,serif" font-size="14.00">&#45;663</text>
<polyline fill="none" stroke="black" points="250,-332.5 250,-378.5 "/>
<text text-anchor="middle" x="265" y="-351.8" font-family="Times New Roman,serif" font-size="14.00">12</text>
</g>
<!-- Node10&#45;&gt;Node11 -->
<!-- Node10&#45;&gt;Node11 -->
<g id="edge35" class="edge">
<title>Node10:nn10&#45;&gt;Node11</title>
<path fill="none" stroke="black" d="M264,-415C264,-404.85 259.85,-395.17 254.21,-386.7"/>
<polygon fill="black" stroke="black" points="256.99,-384.57 248.19,-378.67 251.39,-388.77 256.99,-384.57"/>
</g>
<!-- Node12 -->
<g id="node13" class="node">
<title>Node12</title>
<polygon fill="none" stroke="black" points="170,-249.5 170,-295.5 282,-295.5 282,-249.5 170,-249.5"/>
<text text-anchor="middle" x="190.5" y="-268.8" font-family="Times New Roman,serif" font-size="14.00">&#45;663</text>
<polyline fill="none" stroke="black" points="211,-249.5 211,-295.5 "/>
<text text-anchor="middle" x="231.5" y="-280.3" font-family="Times New Roman,serif" font-size="14.00">12</text>
<polyline fill="none" stroke="black" points="211,-272.5 252,-272.5 "/>
<text text-anchor="middle" x="231.5" y="-257.3" font-family="Times New Roman,serif" font-size="14.00">&#45;663</text>
<polyline fill="none" stroke="black" points="252,-249.5 252,-295.5 "/>
<text text-anchor="middle" x="267" y="-268.8" font-family="Times New Roman,serif" font-size="14.00">13</text>
</g>
<!-- Node11&#45;&gt;Node12 -->
<!-- Node11&#45;&gt;Node12 -->
<g id="edge36" class="edge">
<title>Node11:nn11&#45;&gt;Node12</title>
<path fill="none" stroke="black" d="M265,-332C265,-321.84 260.88,-312.1 255.31,-303.58"/>
<polygon fill="black" stroke="black" points="258.11,-301.48 249.36,-295.5 252.47,-305.63 258.11,-301.48"/>
</g>
<!-- Node13 -->
<g id="node14" class="node">
<title>Node13</title>
<polygon fill="none" stroke="black" points="171,-166.5 171,-212.5 283,-212.5 283,-166.5 171,-166.5"/>
<text text-anchor="middle" x="191.5" y="-185.8" font-family="Times New Roman,serif" font-size="14.00">&#45;663</text>
<polyline fill="none" stroke="black" points="212,-166.5 212,-212.5 "/>
<text text-anchor="middle" x="232.5" y="-197.3" font-family="Times New Roman,serif" font-size="14.00">13</text>
<polyline fill="none" stroke="black" points="212,-189.5 253,-189.5 "/>
<text text-anchor="middle" x="232.5" y="-174.3" font-family="Times New Roman,serif" font-size="14.00">&#45;663</text>
<polyline fill="none" stroke="black" points="253,-166.5 253,-212.5 "/>
<text text-anchor="middle" x="268" y="-185.8" font-family="Times New Roman,serif" font-size="14.00">14</text>
</g>
<!-- Node12&#45;&gt;Node13 -->
<!-- Node12&#45;&gt;Node13 -->
<g id="edge37" class="edge">
<title>Node12:nn12&#45;&gt;Node13</title>
<path fill="none" stroke="black" d="M267,-249C267,-238.85 262.85,-229.17 257.21,-220.7"/>
<polygon fill="black" stroke="black" points="259.99,-218.57 251.19,-212.67 254.39,-222.77 259.99,-218.57"/>
</g>
<!-- Node14 -->
<g id="node15" class="node">
<title>Node14</title>
<polygon fill="none" stroke="black" points="172,-83.5 172,-129.5 284,-129.5 284,-83.5 172,-83.5"/>
<text text-anchor="middle" x="192.5" y="-102.8" font-family="Times New Roman,serif" font-size="14.00">&#45;663</text>
<polyline fill="none" stroke="black" points="213,-83.5 213,-129.5 "/>
<text text-anchor="middle" x="233.5" y="-114.3" font-family="Times New Roman,serif" font-size="14.00">14</text>
<polyline fill="none" stroke="black" points="213,-106.5 254,-106.5 "/>
<text text-anchor="middle" x="233.5" y="-91.3" font-family="Times New Roman,serif" font-size="14.00">&#45;663</text>
<polyline fill="none" stroke="black" points="254,-83.5 254,-129.5 "/>
<text text-anchor="middle" x="269" y="-102.8" font-family="Times New Roman,serif" font-size="14.00">15</text>
</g>
<!-- Node13&#45;&gt;Node14 -->
<!-- Node13&#45;&gt;Node14 -->
<g id="edge38" class="edge">
<title>Node13:nn13&#45;&gt;Node14</title>
<path fill="none" stroke="black" d="M268,-166C268,-155.85 263.85,-146.17 258.21,-137.7"/>
<polygon fill="black" stroke="black" points="260.99,-135.57 252.19,-129.67 255.39,-139.77 260.99,-135.57"/>
</g>
<!-- Node15 -->
<g id="node16" class="node">
<title>Node15</title>
<polygon fill="none" stroke="black" points="216.5,-0.5 216.5,-46.5 321.5,-46.5 321.5,-0.5 216.5,-0.5"/>
<text text-anchor="middle" x="237" y="-19.8" font-family="Times New Roman,serif" font-size="14.00">&#45;663</text>
<polyline fill="none" stroke="black" points="257.5,-0.5 257.5,-46.5 "/>
<text text-anchor="middle" x="278" y="-31.3" font-family="Times New Roman,serif" font-size="14.00">15</text>
<polyline fill="none" stroke="black" points="257.5,-23.5 298.5,-23.5 "/>
<text text-anchor="middle" x="278" y="-8.3" font-family="Times New Roman,serif" font-size="14.00">&#45;663</text>
<polyline fill="none" stroke="black" points="298.5,-0.5 298.5,-46.5 "/>
<text text-anchor="middle" x="310" y="-19.8" font-family="Times New Roman,serif" font-size="14.00">0</text>
</g>
<!-- Node14&#45;&gt;Node15 -->
<!-- Node14&#45;&gt;Node15 -->
<g id="edge39" class="edge">
<title>Node14:nn14&#45;&gt;Node15</title>
<path fill="none" stroke="black" d="M269,-83C269,-74.57 269,-65.46 269,-57"/>
<polygon fill="black" stroke="black" points="272.5,-56.72 269,-46.72 265.5,-56.72 272.5,-56.72"/>
</g>
<!-- Node15&#45;&gt;Node0 -->
<g id="edge40" class="edge">
<title>Node15:nn15&#45;&gt;Node0</title>
<path fill="none" stroke="black" d="M310,-47C310,-109.9 312,-125.6 312,-188.5 312,-1020.5 312,-1020.5 312,-1020.5 312,-1104.38 208.34,-1150.12 142.37,-1170.73"/>
<polygon fill="black" stroke="black" points="141.08,-1167.46 132.53,-1173.71 143.11,-1174.16 141.08,-1167.46"/>
</g>
<!-- free -->
<g id="node17" class="node">
<title>free</title>
<polygon fill="#c1cdcd" stroke="black" points="230,-586.5 230,-622.5 284,-622.5 284,-586.5 230,-586.5"/>
<text text-anchor="middle" x="257" y="-600.8" font-family="Times New Roman,serif" font-size="14.00">free</text>
</g>
<!-- free&#45;&gt;Node9 -->
<g id="edge41" class="edge">
<title>free&#45;&gt;Node9</title>
<path fill="none" stroke="black" d="M247.88,-586.32C242.83,-576.82 236.41,-564.71 230.51,-553.6"/>
<polygon fill="black" stroke="black" points="233.51,-551.78 225.73,-544.59 227.32,-555.06 233.51,-551.78"/>
</g>
</g>
</svg>
