<?xml version="1.0" encoding="UTF-8" standalone="no"?>
<!DOCTYPE svg PUBLIC "-//W3C//DTD SVG 1.1//EN"
 "http://www.w3.org/Graphics/SVG/1.1/DTD/svg11.dtd">
<!-- Generated by graphviz version 2.49.3 (20211023.0002)
 -->
<!-- Title: Tree Pages: 1 -->
<svg width="604pt" height="771pt"
 viewBox="0.00 0.00 604.01 771.00" xmlns="http://www.w3.org/2000/svg" xmlns:xlink="http://www.w3.org/1999/xlink">
<g id="graph0" class="graph" transform="scale(1 1) rotate(0) translate(4 767)">
<title>Tree</title>
<polygon fill="white" stroke="transparent" points="-4,4 -4,-767 600.01,-767 600.01,4 -4,4"/>
<!-- Node_000001ef54101520 -->
<g id="node1" class="node">
<title>Node_000001ef54101520</title>
<polygon fill="none" stroke="black" points="239.62,-693.5 239.62,-762.5 361.62,-762.5 361.62,-693.5 239.62,-693.5"/>
<text text-anchor="middle" x="300.62" y="-747.3" font-family="Times New Roman,serif" font-size="14.00">000001ef54101570</text>
<polyline fill="none" stroke="black" points="239.62,-739.5 361.62,-739.5 "/>
<text text-anchor="middle" x="300.62" y="-724.3" font-family="Times New Roman,serif" font-size="14.00">Cool?</text>
<polyline fill="none" stroke="black" points="239.62,-716.5 361.62,-716.5 "/>
<text text-anchor="middle" x="300.62" y="-701.3" font-family="Times New Roman,serif" font-size="14.00">000001ef54101700</text>
</g>
<!-- Node_000001ef54101570 -->
<g id="node2" class="node">
<title>Node_000001ef54101570</title>
<polygon fill="none" stroke="black" points="170.62,-572.5 170.62,-641.5 292.62,-641.5 292.62,-572.5 170.62,-572.5"/>
<text text-anchor="middle" x="231.62" y="-626.3" font-family="Times New Roman,serif" font-size="14.00">000001ef541015c0</text>
<polyline fill="none" stroke="black" points="170.62,-618.5 292.62,-618.5 "/>
<text text-anchor="middle" x="231.62" y="-603.3" font-family="Times New Roman,serif" font-size="14.00">Does it sleep?</text>
<polyline fill="none" stroke="black" points="170.62,-595.5 292.62,-595.5 "/>
<text text-anchor="middle" x="231.62" y="-580.3" font-family="Times New Roman,serif" font-size="14.00">000001ef541016b0</text>
</g>
<!-- Node_000001ef54101520&#45;&gt;Node_000001ef54101570 -->
<g id="edge1" class="edge">
<title>Node_000001ef54101520:left&#45;&gt;Node_000001ef54101570</title>
<path fill="none" stroke="black" d="M238.62,-751C198.23,-751 206.29,-693.4 217.57,-651.31"/>
<polygon fill="black" stroke="black" points="220.98,-652.1 220.32,-641.53 214.24,-650.21 220.98,-652.1"/>
<text text-anchor="middle" x="224.62" y="-663.8" font-family="Times New Roman,serif" font-size="14.00">No</text>
</g>
<!-- Node_000001ef54101700 -->
<g id="node3" class="node">
<title>Node_000001ef54101700</title>
<polygon fill="none" stroke="black" points="317.62,-572.5 317.62,-641.5 439.62,-641.5 439.62,-572.5 317.62,-572.5"/>
<text text-anchor="middle" x="378.62" y="-626.3" font-family="Times New Roman,serif" font-size="14.00">000001ef54101750</text>
<polyline fill="none" stroke="black" points="317.62,-618.5 439.62,-618.5 "/>
<text text-anchor="middle" x="378.62" y="-603.3" font-family="Times New Roman,serif" font-size="14.00">Is it yummy?</text>
<polyline fill="none" stroke="black" points="317.62,-595.5 439.62,-595.5 "/>
<text text-anchor="middle" x="378.62" y="-580.3" font-family="Times New Roman,serif" font-size="14.00">000001ef54101980</text>
</g>
<!-- Node_000001ef54101520&#45;&gt;Node_000001ef54101700 -->
<g id="edge2" class="edge">
<title>Node_000001ef54101520:right&#45;&gt;Node_000001ef54101700</title>
<path fill="none" stroke="black" d="M362.62,-705C385.9,-705 388.91,-677.46 386.65,-651.74"/>
<polygon fill="black" stroke="black" points="390.11,-651.19 385.5,-641.65 383.16,-651.98 390.11,-651.19"/>
<text text-anchor="middle" x="398.62" y="-663.8" font-family="Times New Roman,serif" font-size="14.00">Yes</text>
</g>
<!-- Node_000001ef541015c0 -->
<g id="node16" class="node">
<title>Node_000001ef541015c0</title>
<polygon fill="none" stroke="black" points="61.62,-451.5 61.62,-520.5 183.62,-520.5 183.62,-451.5 61.62,-451.5"/>
<text text-anchor="middle" x="122.62" y="-505.3" font-family="Times New Roman,serif" font-size="14.00">000001ef54101610</text>
<polyline fill="none" stroke="black" points="61.62,-497.5 183.62,-497.5 "/>
<text text-anchor="middle" x="122.62" y="-482.3" font-family="Times New Roman,serif" font-size="14.00">Program</text>
<polyline fill="none" stroke="black" points="61.62,-474.5 183.62,-474.5 "/>
<text text-anchor="middle" x="122.62" y="-459.3" font-family="Times New Roman,serif" font-size="14.00">NaN</text>
</g>
<!-- Node_000001ef54101570&#45;&gt;Node_000001ef541015c0 -->
<g id="edge15" class="edge">
<title>Node_000001ef54101570:left&#45;&gt;Node_000001ef541015c0</title>
<path fill="none" stroke="black" d="M169.62,-630C127.25,-630 119.7,-572.64 119.85,-530.58"/>
<polygon fill="black" stroke="black" points="123.35,-530.59 120.03,-520.53 116.35,-530.46 123.35,-530.59"/>
<text text-anchor="middle" x="129.62" y="-542.8" font-family="Times New Roman,serif" font-size="14.00">No</text>
</g>
<!-- Node_000001ef541016b0 -->
<g id="node17" class="node">
<title>Node_000001ef541016b0</title>
<polygon fill="none" stroke="black" points="204.62,-468 204.62,-504 258.62,-504 258.62,-468 204.62,-468"/>
<text text-anchor="middle" x="231.62" y="-482.3" font-family="Times New Roman,serif" font-size="14.00">You</text>
</g>
<!-- Node_000001ef54101570&#45;&gt;Node_000001ef541016b0 -->
<g id="edge16" class="edge">
<title>Node_000001ef54101570:right&#45;&gt;Node_000001ef541016b0</title>
<path fill="none" stroke="black" d="M231.62,-572C231.62,-552.75 231.62,-531.05 231.62,-514.4"/>
<polygon fill="black" stroke="black" points="235.12,-514.26 231.62,-504.26 228.12,-514.26 235.12,-514.26"/>
<text text-anchor="middle" x="242.62" y="-542.8" font-family="Times New Roman,serif" font-size="14.00">Yes</text>
</g>
<!-- Node_000001ef54101750 -->
<g id="node4" class="node">
<title>Node_000001ef54101750</title>
<polygon fill="none" stroke="black" points="317.62,-451.5 317.62,-520.5 439.62,-520.5 439.62,-451.5 317.62,-451.5"/>
<text text-anchor="middle" x="378.62" y="-505.3" font-family="Times New Roman,serif" font-size="14.00">000001ef541017a0</text>
<polyline fill="none" stroke="black" points="317.62,-497.5 439.62,-497.5 "/>
<text text-anchor="middle" x="378.62" y="-482.3" font-family="Times New Roman,serif" font-size="14.00">Is it fresh?</text>
<polyline fill="none" stroke="black" points="317.62,-474.5 439.62,-474.5 "/>
<text text-anchor="middle" x="378.62" y="-459.3" font-family="Times New Roman,serif" font-size="14.00">000001ef54101930</text>
</g>
<!-- Node_000001ef54101700&#45;&gt;Node_000001ef54101750 -->
<g id="edge3" class="edge">
<title>Node_000001ef54101700:left&#45;&gt;Node_000001ef54101750</title>
<path fill="none" stroke="black" d="M378.62,-643C378.62,-649.78 434.87,-646.83 439.62,-642 461.44,-619.82 449.15,-601.62 439.62,-572 437.95,-566.8 424.4,-547.74 410.49,-528.99"/>
<polygon fill="black" stroke="black" points="413.11,-526.65 404.33,-520.73 407.5,-530.84 413.11,-526.65"/>
<text text-anchor="middle" x="436.62" y="-542.8" font-family="Times New Roman,serif" font-size="14.00">No</text>
</g>
<!-- Node_000001ef54101980 -->
<g id="node5" class="node">
<title>Node_000001ef54101980</title>
<polygon fill="none" stroke="black" points="459.62,-451.5 459.62,-520.5 581.62,-520.5 581.62,-451.5 459.62,-451.5"/>
<text text-anchor="middle" x="520.62" y="-505.3" font-family="Times New Roman,serif" font-size="14.00">000001ef541019d0</text>
<polyline fill="none" stroke="black" points="459.62,-497.5 581.62,-497.5 "/>
<text text-anchor="middle" x="520.62" y="-482.3" font-family="Times New Roman,serif" font-size="14.00">Algem</text>
<polyline fill="none" stroke="black" points="459.62,-474.5 581.62,-474.5 "/>
<text text-anchor="middle" x="520.62" y="-459.3" font-family="Times New Roman,serif" font-size="14.00">NaN</text>
</g>
<!-- Node_000001ef54101700&#45;&gt;Node_000001ef54101980 -->
<g id="edge4" class="edge">
<title>Node_000001ef54101700:right&#45;&gt;Node_000001ef54101980</title>
<path fill="none" stroke="black" d="M440.62,-584C470.66,-584 491.52,-555.98 504.39,-530.05"/>
<polygon fill="black" stroke="black" points="507.71,-531.2 508.77,-520.65 501.37,-528.24 507.71,-531.2"/>
<text text-anchor="middle" x="509.62" y="-542.8" font-family="Times New Roman,serif" font-size="14.00">Yes</text>
</g>
<!-- Node_000001ef541017a0 -->
<g id="node8" class="node">
<title>Node_000001ef541017a0</title>
<polygon fill="none" stroke="black" points="181.12,-330.5 181.12,-399.5 302.12,-399.5 302.12,-330.5 181.12,-330.5"/>
<text text-anchor="middle" x="241.62" y="-384.3" font-family="Times New Roman,serif" font-size="14.00">000001ef541017f0</text>
<polyline fill="none" stroke="black" points="181.12,-376.5 302.12,-376.5 "/>
<text text-anchor="middle" x="241.62" y="-361.3" font-family="Times New Roman,serif" font-size="14.00">Pink?</text>
<polyline fill="none" stroke="black" points="181.12,-353.5 302.12,-353.5 "/>
<text text-anchor="middle" x="241.62" y="-338.3" font-family="Times New Roman,serif" font-size="14.00">000001ef541018e0</text>
</g>
<!-- Node_000001ef54101750&#45;&gt;Node_000001ef541017a0 -->
<g id="edge7" class="edge">
<title>Node_000001ef54101750:left&#45;&gt;Node_000001ef541017a0</title>
<path fill="none" stroke="black" d="M316.62,-509C293.8,-509 269.67,-451.16 255.12,-409.05"/>
<polygon fill="black" stroke="black" points="258.42,-407.88 251.91,-399.53 251.79,-410.12 258.42,-407.88"/>
<text text-anchor="middle" x="271.62" y="-421.8" font-family="Times New Roman,serif" font-size="14.00">No</text>
</g>
<!-- Node_000001ef54101930 -->
<g id="node9" class="node">
<title>Node_000001ef54101930</title>
<polygon fill="none" stroke="black" points="320.62,-330.5 320.62,-399.5 442.62,-399.5 442.62,-330.5 320.62,-330.5"/>
<text text-anchor="middle" x="381.62" y="-384.3" font-family="Times New Roman,serif" font-size="14.00">000001ef54106270</text>
<polyline fill="none" stroke="black" points="320.62,-376.5 442.62,-376.5 "/>
<text text-anchor="middle" x="381.62" y="-361.3" font-family="Times New Roman,serif" font-size="14.00">juice</text>
<polyline fill="none" stroke="black" points="320.62,-353.5 442.62,-353.5 "/>
<text text-anchor="middle" x="381.62" y="-338.3" font-family="Times New Roman,serif" font-size="14.00">NaN</text>
</g>
<!-- Node_000001ef54101750&#45;&gt;Node_000001ef54101930 -->
<g id="edge8" class="edge">
<title>Node_000001ef54101750:right&#45;&gt;Node_000001ef54101930</title>
<path fill="none" stroke="black" d="M378.62,-451C378.62,-437.72 378.99,-423.27 379.47,-410.13"/>
<polygon fill="black" stroke="black" points="382.98,-410.04 379.87,-399.91 375.98,-409.76 382.98,-410.04"/>
<text text-anchor="middle" x="390.62" y="-421.8" font-family="Times New Roman,serif" font-size="14.00">Yes</text>
</g>
<!-- Node_000001ef541019d0 -->
<g id="node6" class="node">
<title>Node_000001ef541019d0</title>
<polygon fill="none" stroke="black" points="461.12,-330.5 461.12,-399.5 582.12,-399.5 582.12,-330.5 461.12,-330.5"/>
<text text-anchor="middle" x="521.62" y="-384.3" font-family="Times New Roman,serif" font-size="14.00">000001ef54101a20</text>
<polyline fill="none" stroke="black" points="461.12,-376.5 582.12,-376.5 "/>
<text text-anchor="middle" x="521.62" y="-361.3" font-family="Times New Roman,serif" font-size="14.00">Is it a fruit?</text>
<polyline fill="none" stroke="black" points="461.12,-353.5 582.12,-353.5 "/>
<text text-anchor="middle" x="521.62" y="-338.3" font-family="Times New Roman,serif" font-size="14.00">NaN</text>
</g>
<!-- Node_000001ef54101980&#45;&gt;Node_000001ef541019d0 -->
<g id="edge5" class="edge">
<title>Node_000001ef54101980:left&#45;&gt;Node_000001ef541019d0</title>
<path fill="none" stroke="black" d="M520.62,-522C520.62,-528.78 576.87,-525.83 581.62,-521 612.06,-490.05 586,-441.95 559.34,-407.54"/>
<polygon fill="black" stroke="black" points="561.92,-405.17 552.94,-399.55 556.46,-409.54 561.92,-405.17"/>
<text text-anchor="middle" x="583.62" y="-421.8" font-family="Times New Roman,serif" font-size="14.00">No</text>
</g>
<!-- Node_000001ef54101a20 -->
<g id="node7" class="node">
<title>Node_000001ef54101a20</title>
<polygon fill="none" stroke="black" points="489.12,-226 489.12,-262 554.12,-262 554.12,-226 489.12,-226"/>
<text text-anchor="middle" x="521.62" y="-240.3" font-family="Times New Roman,serif" font-size="14.00">pumpkin</text>
</g>
<!-- Node_000001ef541019d0&#45;&gt;Node_000001ef54101a20 -->
<g id="edge6" class="edge">
<title>Node_000001ef541019d0:left&#45;&gt;Node_000001ef54101a20</title>
<path fill="none" stroke="black" d="M521.62,-401C521.62,-407.72 577.4,-404.79 582.12,-400 617.94,-363.58 575.41,-303.53 545.68,-269.86"/>
<polygon fill="black" stroke="black" points="548.13,-267.35 538.82,-262.3 542.95,-272.06 548.13,-267.35"/>
<text text-anchor="middle" x="583.62" y="-300.8" font-family="Times New Roman,serif" font-size="14.00">No</text>
</g>
<!-- Node_000001ef541017f0 -->
<g id="node12" class="node">
<title>Node_000001ef541017f0</title>
<polygon fill="none" stroke="black" points="109.62,-209.5 109.62,-278.5 231.62,-278.5 231.62,-209.5 109.62,-209.5"/>
<text text-anchor="middle" x="170.62" y="-263.3" font-family="Times New Roman,serif" font-size="14.00">000001ef54101840</text>
<polyline fill="none" stroke="black" points="109.62,-255.5 231.62,-255.5 "/>
<text text-anchor="middle" x="170.62" y="-240.3" font-family="Times New Roman,serif" font-size="14.00">Sausage</text>
<polyline fill="none" stroke="black" points="109.62,-232.5 231.62,-232.5 "/>
<text text-anchor="middle" x="170.62" y="-217.3" font-family="Times New Roman,serif" font-size="14.00">NaN</text>
</g>
<!-- Node_000001ef541017a0&#45;&gt;Node_000001ef541017f0 -->
<g id="edge11" class="edge">
<title>Node_000001ef541017a0:left&#45;&gt;Node_000001ef541017f0</title>
<path fill="none" stroke="black" d="M179.62,-388C159.45,-388 161.22,-330.64 165.23,-288.58"/>
<polygon fill="black" stroke="black" points="168.72,-288.83 166.25,-278.53 161.76,-288.12 168.72,-288.83"/>
<text text-anchor="middle" x="173.62" y="-300.8" font-family="Times New Roman,serif" font-size="14.00">No</text>
</g>
<!-- Node_000001ef541018e0 -->
<g id="node13" class="node">
<title>Node_000001ef541018e0</title>
<polygon fill="none" stroke="black" points="249.62,-226 249.62,-262 303.62,-262 303.62,-226 249.62,-226"/>
<text text-anchor="middle" x="276.62" y="-240.3" font-family="Times New Roman,serif" font-size="14.00">Wine</text>
</g>
<!-- Node_000001ef541017a0&#45;&gt;Node_000001ef541018e0 -->
<g id="edge12" class="edge">
<title>Node_000001ef541017a0:right&#45;&gt;Node_000001ef541018e0</title>
<path fill="none" stroke="black" d="M241.62,-330C241.62,-309.06 250.82,-287.25 259.78,-270.96"/>
<polygon fill="black" stroke="black" points="262.96,-272.47 264.96,-262.06 256.91,-268.94 262.96,-272.47"/>
<text text-anchor="middle" x="258.62" y="-300.8" font-family="Times New Roman,serif" font-size="14.00">Yes</text>
</g>
<!-- Node_000001ef54106270 -->
<g id="node10" class="node">
<title>Node_000001ef54106270</title>
<polygon fill="none" stroke="black" points="321.62,-209.5 321.62,-278.5 443.62,-278.5 443.62,-209.5 321.62,-209.5"/>
<text text-anchor="middle" x="382.62" y="-263.3" font-family="Times New Roman,serif" font-size="14.00">NaN</text>
<polyline fill="none" stroke="black" points="321.62,-255.5 443.62,-255.5 "/>
<text text-anchor="middle" x="382.62" y="-240.3" font-family="Times New Roman,serif" font-size="14.00">NICE?</text>
<polyline fill="none" stroke="black" points="321.62,-232.5 443.62,-232.5 "/>
<text text-anchor="middle" x="382.62" y="-217.3" font-family="Times New Roman,serif" font-size="14.00">000001ef54106310</text>
</g>
<!-- Node_000001ef54101930&#45;&gt;Node_000001ef54106270 -->
<g id="edge9" class="edge">
<title>Node_000001ef54101930:left&#45;&gt;Node_000001ef54106270</title>
<path fill="none" stroke="black" d="M381.62,-401C381.62,-407.78 437.87,-404.83 442.62,-400 453.53,-388.91 447.32,-344.83 442.62,-330 437.78,-314.75 429.1,-299.87 419.82,-286.94"/>
<polygon fill="black" stroke="black" points="422.47,-284.64 413.68,-278.74 416.87,-288.84 422.47,-284.64"/>
<text text-anchor="middle" x="443.62" y="-300.8" font-family="Times New Roman,serif" font-size="14.00">No</text>
</g>
<!-- Node_000001ef54106310 -->
<g id="node11" class="node">
<title>Node_000001ef54106310</title>
<polygon fill="none" stroke="black" points="355.62,-105 355.62,-141 409.62,-141 409.62,-105 355.62,-105"/>
<text text-anchor="middle" x="382.62" y="-119.3" font-family="Times New Roman,serif" font-size="14.00">nice</text>
</g>
<!-- Node_000001ef54106270&#45;&gt;Node_000001ef54106310 -->
<g id="edge10" class="edge">
<title>Node_000001ef54106270:right&#45;&gt;Node_000001ef54106310</title>
<path fill="none" stroke="black" d="M382.62,-209C382.62,-189.75 382.62,-168.05 382.62,-151.4"/>
<polygon fill="black" stroke="black" points="386.12,-151.26 382.62,-141.26 379.12,-151.26 386.12,-151.26"/>
<text text-anchor="middle" x="393.62" y="-179.8" font-family="Times New Roman,serif" font-size="14.00">Yes</text>
</g>
<!-- Node_000001ef54101840 -->
<g id="node14" class="node">
<title>Node_000001ef54101840</title>
<polygon fill="none" stroke="black" points="109.62,-88.5 109.62,-157.5 231.62,-157.5 231.62,-88.5 109.62,-88.5"/>
<text text-anchor="middle" x="170.62" y="-142.3" font-family="Times New Roman,serif" font-size="14.00">000001ef54101890</text>
<polyline fill="none" stroke="black" points="109.62,-134.5 231.62,-134.5 "/>
<text text-anchor="middle" x="170.62" y="-119.3" font-family="Times New Roman,serif" font-size="14.00">Is it pretty?</text>
<polyline fill="none" stroke="black" points="109.62,-111.5 231.62,-111.5 "/>
<text text-anchor="middle" x="170.62" y="-96.3" font-family="Times New Roman,serif" font-size="14.00">NaN</text>
</g>
<!-- Node_000001ef541017f0&#45;&gt;Node_000001ef54101840 -->
<g id="edge13" class="edge">
<title>Node_000001ef541017f0:left&#45;&gt;Node_000001ef54101840</title>
<path fill="none" stroke="black" d="M170.62,-280C170.62,-286.78 226.87,-283.83 231.62,-279 242.53,-267.91 236.38,-223.81 231.62,-209 226.69,-193.68 217.87,-178.79 208.44,-165.85"/>
<polygon fill="black" stroke="black" points="211.03,-163.49 202.19,-157.66 205.47,-167.73 211.03,-163.49"/>
<text text-anchor="middle" x="232.62" y="-179.8" font-family="Times New Roman,serif" font-size="14.00">No</text>
</g>
<!-- Node_000001ef54101890 -->
<g id="node15" class="node">
<title>Node_000001ef54101890</title>
<polygon fill="none" stroke="black" points="143.62,-0.5 143.62,-36.5 197.62,-36.5 197.62,-0.5 143.62,-0.5"/>
<text text-anchor="middle" x="170.62" y="-14.8" font-family="Times New Roman,serif" font-size="14.00">hippo</text>
</g>
<!-- Node_000001ef54101840&#45;&gt;Node_000001ef54101890 -->
<g id="edge14" class="edge">
<title>Node_000001ef54101840:left&#45;&gt;Node_000001ef54101890</title>
<path fill="none" stroke="black" d="M170.62,-159C170.62,-165.78 226.87,-162.83 231.62,-158 253.44,-135.82 242.69,-117.08 231.62,-88 225.14,-70.99 212.29,-55.52 200.05,-43.6"/>
<polygon fill="black" stroke="black" points="202.28,-40.89 192.57,-36.65 197.52,-46.02 202.28,-40.89"/>
<text text-anchor="middle" x="231.62" y="-58.8" font-family="Times New Roman,serif" font-size="14.00">No</text>
</g>
<!-- Node_000001ef54101610 -->
<g id="node18" class="node">
<title>Node_000001ef54101610</title>
<polygon fill="none" stroke="black" points="22.62,-330.5 22.62,-399.5 144.62,-399.5 144.62,-330.5 22.62,-330.5"/>
<text text-anchor="middle" x="83.62" y="-384.3" font-family="Times New Roman,serif" font-size="14.00">000001ef54101660</text>
<polyline fill="none" stroke="black" points="22.62,-376.5 144.62,-376.5 "/>
<text text-anchor="middle" x="83.62" y="-361.3" font-family="Times New Roman,serif" font-size="14.00">Is it an animal?</text>
<polyline fill="none" stroke="black" points="22.62,-353.5 144.62,-353.5 "/>
<text text-anchor="middle" x="83.62" y="-338.3" font-family="Times New Roman,serif" font-size="14.00">NaN</text>
</g>
<!-- Node_000001ef541015c0&#45;&gt;Node_000001ef54101610 -->
<g id="edge17" class="edge">
<title>Node_000001ef541015c0:left&#45;&gt;Node_000001ef54101610</title>
<path fill="none" stroke="black" d="M122.62,-522C122.62,-528.78 178.87,-525.83 183.62,-521 194.53,-509.91 190.15,-465.12 183.62,-451 175.63,-433.72 162.21,-418.67 147.75,-406.23"/>
<polygon fill="black" stroke="black" points="149.59,-403.22 139.64,-399.59 145.16,-408.64 149.59,-403.22"/>
<text text-anchor="middle" x="180.62" y="-421.8" font-family="Times New Roman,serif" font-size="14.00">No</text>
</g>
<!-- Node_000001ef54101660 -->
<g id="node19" class="node">
<title>Node_000001ef54101660</title>
<polygon fill="none" stroke="black" points="37.62,-226 37.62,-262 91.62,-262 91.62,-226 37.62,-226"/>
<text text-anchor="middle" x="64.62" y="-240.3" font-family="Times New Roman,serif" font-size="14.00">camel</text>
</g>
<!-- Node_000001ef54101610&#45;&gt;Node_000001ef54101660 -->
<g id="edge18" class="edge">
<title>Node_000001ef54101610:left&#45;&gt;Node_000001ef54101660</title>
<path fill="none" stroke="black" d="M21.62,-388C-26.81,-388 18.33,-311.87 46.27,-270.7"/>
<polygon fill="black" stroke="black" points="49.31,-272.47 52.1,-262.25 43.54,-268.49 49.31,-272.47"/>
<text text-anchor="middle" x="37.62" y="-300.8" font-family="Times New Roman,serif" font-size="14.00">No</text>
</g>
</g>
</svg>
