<?xml version="1.0" encoding="UTF-8" standalone="no"?>
<!DOCTYPE svg PUBLIC "-//W3C//DTD SVG 1.1//EN"
 "http://www.w3.org/Graphics/SVG/1.1/DTD/svg11.dtd">
<!-- Generated by graphviz version 2.49.3 (20211023.0002)
 -->
<!-- Title: Tree Pages: 1 -->
<svg width="446pt" height="529pt"
 viewBox="0.00 0.00 445.84 529.00" xmlns="http://www.w3.org/2000/svg" xmlns:xlink="http://www.w3.org/1999/xlink">
<g id="graph0" class="graph" transform="scale(1 1) rotate(0) translate(4 525)">
<title>Tree</title>
<polygon fill="white" stroke="transparent" points="-4,4 -4,-525 441.84,-525 441.84,4 -4,4"/>
<!-- Node_000001a5ef461520 -->
<g id="node1" class="node">
<title>Node_000001a5ef461520</title>
<polygon fill="none" stroke="black" points="102,-451.5 102,-520.5 223,-520.5 223,-451.5 102,-451.5"/>
<text text-anchor="middle" x="162.5" y="-505.3" font-family="Times New Roman,serif" font-size="14.00">000001a5ef461570</text>
<polyline fill="none" stroke="black" points="102,-497.5 223,-497.5 "/>
<text text-anchor="middle" x="162.5" y="-482.3" font-family="Times New Roman,serif" font-size="14.00">Cool?</text>
<polyline fill="none" stroke="black" points="102,-474.5 223,-474.5 "/>
<text text-anchor="middle" x="162.5" y="-459.3" font-family="Times New Roman,serif" font-size="14.00">000001a5ef461660</text>
</g>
<!-- Node_000001a5ef461570 -->
<g id="node2" class="node">
<title>Node_000001a5ef461570</title>
<polygon fill="none" stroke="black" points="33,-330.5 33,-399.5 154,-399.5 154,-330.5 33,-330.5"/>
<text text-anchor="middle" x="93.5" y="-384.3" font-family="Times New Roman,serif" font-size="14.00">000001a5ef4615c0</text>
<polyline fill="none" stroke="black" points="33,-376.5 154,-376.5 "/>
<text text-anchor="middle" x="93.5" y="-361.3" font-family="Times New Roman,serif" font-size="14.00">Does it sleep?</text>
<polyline fill="none" stroke="black" points="33,-353.5 154,-353.5 "/>
<text text-anchor="middle" x="93.5" y="-338.3" font-family="Times New Roman,serif" font-size="14.00">000001a5ef461610</text>
</g>
<!-- Node_000001a5ef461520&#45;&gt;Node_000001a5ef461570 -->
<g id="edge1" class="edge">
<title>Node_000001a5ef461520:left&#45;&gt;Node_000001a5ef461570</title>
<path fill="none" stroke="black" d="M100.5,-509C60.12,-509 68.17,-451.4 79.45,-409.31"/>
<polygon fill="black" stroke="black" points="82.86,-410.1 82.2,-399.53 76.12,-408.21 82.86,-410.1"/>
<text text-anchor="middle" x="86.5" y="-421.8" font-family="Times New Roman,serif" font-size="14.00">No</text>
</g>
<!-- Node_000001a5ef461660 -->
<g id="node3" class="node">
<title>Node_000001a5ef461660</title>
<polygon fill="none" stroke="black" points="172.5,-330.5 172.5,-399.5 294.5,-399.5 294.5,-330.5 172.5,-330.5"/>
<text text-anchor="middle" x="233.5" y="-384.3" font-family="Times New Roman,serif" font-size="14.00">000001a5ef4616b0</text>
<polyline fill="none" stroke="black" points="172.5,-376.5 294.5,-376.5 "/>
<text text-anchor="middle" x="233.5" y="-361.3" font-family="Times New Roman,serif" font-size="14.00">Is it yummy?</text>
<polyline fill="none" stroke="black" points="172.5,-353.5 294.5,-353.5 "/>
<text text-anchor="middle" x="233.5" y="-338.3" font-family="Times New Roman,serif" font-size="14.00">000001a5ef461840</text>
</g>
<!-- Node_000001a5ef461520&#45;&gt;Node_000001a5ef461660 -->
<g id="edge2" class="edge">
<title>Node_000001a5ef461520:right&#45;&gt;Node_000001a5ef461660</title>
<path fill="none" stroke="black" d="M224.5,-463C247.57,-463 248.61,-435.46 244.55,-409.74"/>
<polygon fill="black" stroke="black" points="247.95,-408.86 242.7,-399.65 241.06,-410.12 247.95,-408.86"/>
<text text-anchor="middle" x="257.5" y="-421.8" font-family="Times New Roman,serif" font-size="14.00">Yes</text>
</g>
<!-- Node_000001a5ef4615c0 -->
<g id="node12" class="node">
<title>Node_000001a5ef4615c0</title>
<polygon fill="none" stroke="black" points="0,-226 0,-262 65,-262 65,-226 0,-226"/>
<text text-anchor="middle" x="32.5" y="-240.3" font-family="Times New Roman,serif" font-size="14.00">Program</text>
</g>
<!-- Node_000001a5ef461570&#45;&gt;Node_000001a5ef4615c0 -->
<g id="edge11" class="edge">
<title>Node_000001a5ef461570:left&#45;&gt;Node_000001a5ef4615c0</title>
<path fill="none" stroke="black" d="M31.5,-388C-14.49,-388 6.6,-313.14 21.77,-271.74"/>
<polygon fill="black" stroke="black" points="25.1,-272.84 25.36,-262.25 18.55,-270.36 25.1,-272.84"/>
<text text-anchor="middle" x="22.5" y="-300.8" font-family="Times New Roman,serif" font-size="14.00">No</text>
</g>
<!-- Node_000001a5ef461610 -->
<g id="node13" class="node">
<title>Node_000001a5ef461610</title>
<polygon fill="none" stroke="black" points="83.5,-226 83.5,-262 137.5,-262 137.5,-226 83.5,-226"/>
<text text-anchor="middle" x="110.5" y="-240.3" font-family="Times New Roman,serif" font-size="14.00">You</text>
</g>
<!-- Node_000001a5ef461570&#45;&gt;Node_000001a5ef461610 -->
<g id="edge12" class="edge">
<title>Node_000001a5ef461570:right&#45;&gt;Node_000001a5ef461610</title>
<path fill="none" stroke="black" d="M93.5,-330C93.5,-310.37 97.91,-288.68 102.24,-272.12"/>
<polygon fill="black" stroke="black" points="105.73,-272.63 105.03,-262.06 98.99,-270.76 105.73,-272.63"/>
<text text-anchor="middle" x="107.5" y="-300.8" font-family="Times New Roman,serif" font-size="14.00">Yes</text>
</g>
<!-- Node_000001a5ef4616b0 -->
<g id="node4" class="node">
<title>Node_000001a5ef4616b0</title>
<polygon fill="none" stroke="black" points="164,-209.5 164,-278.5 285,-278.5 285,-209.5 164,-209.5"/>
<text text-anchor="middle" x="224.5" y="-263.3" font-family="Times New Roman,serif" font-size="14.00">000001a5ef461700</text>
<polyline fill="none" stroke="black" points="164,-255.5 285,-255.5 "/>
<text text-anchor="middle" x="224.5" y="-240.3" font-family="Times New Roman,serif" font-size="14.00">Is it fresh?</text>
<polyline fill="none" stroke="black" points="164,-232.5 285,-232.5 "/>
<text text-anchor="middle" x="224.5" y="-217.3" font-family="Times New Roman,serif" font-size="14.00">000001a5ef4617f0</text>
</g>
<!-- Node_000001a5ef461660&#45;&gt;Node_000001a5ef4616b0 -->
<g id="edge3" class="edge">
<title>Node_000001a5ef461660:left&#45;&gt;Node_000001a5ef4616b0</title>
<path fill="none" stroke="black" d="M233.5,-401C233.5,-407.78 289.75,-404.83 294.5,-400 316.32,-377.82 305.56,-359.08 294.5,-330 290.7,-320 285.42,-320.17 278.5,-312 271.62,-303.88 264.39,-295.09 257.54,-286.63"/>
<polygon fill="black" stroke="black" points="260.11,-284.24 251.1,-278.66 254.66,-288.64 260.11,-284.24"/>
<text text-anchor="middle" x="287.5" y="-300.8" font-family="Times New Roman,serif" font-size="14.00">No</text>
</g>
<!-- Node_000001a5ef461840 -->
<g id="node5" class="node">
<title>Node_000001a5ef461840</title>
<polygon fill="none" stroke="black" points="303,-209.5 303,-278.5 424,-278.5 424,-209.5 303,-209.5"/>
<text text-anchor="middle" x="363.5" y="-263.3" font-family="Times New Roman,serif" font-size="14.00">000001a5ef461940</text>
<polyline fill="none" stroke="black" points="303,-255.5 424,-255.5 "/>
<text text-anchor="middle" x="363.5" y="-240.3" font-family="Times New Roman,serif" font-size="14.00">Algem</text>
<polyline fill="none" stroke="black" points="303,-232.5 424,-232.5 "/>
<text text-anchor="middle" x="363.5" y="-217.3" font-family="Times New Roman,serif" font-size="14.00">NaN</text>
</g>
<!-- Node_000001a5ef461660&#45;&gt;Node_000001a5ef461840 -->
<g id="edge4" class="edge">
<title>Node_000001a5ef461660:right&#45;&gt;Node_000001a5ef461840</title>
<path fill="none" stroke="black" d="M295.5,-342C323.8,-342 341.32,-313.98 351.48,-288.05"/>
<polygon fill="black" stroke="black" points="354.77,-289.25 354.89,-278.65 348.19,-286.86 354.77,-289.25"/>
<text text-anchor="middle" x="358.5" y="-300.8" font-family="Times New Roman,serif" font-size="14.00">Yes</text>
</g>
<!-- Node_000001a5ef461700 -->
<g id="node8" class="node">
<title>Node_000001a5ef461700</title>
<polygon fill="none" stroke="black" points="75,-88.5 75,-157.5 196,-157.5 196,-88.5 75,-88.5"/>
<text text-anchor="middle" x="135.5" y="-142.3" font-family="Times New Roman,serif" font-size="14.00">000001a5ef461750</text>
<polyline fill="none" stroke="black" points="75,-134.5 196,-134.5 "/>
<text text-anchor="middle" x="135.5" y="-119.3" font-family="Times New Roman,serif" font-size="14.00">Pink?</text>
<polyline fill="none" stroke="black" points="75,-111.5 196,-111.5 "/>
<text text-anchor="middle" x="135.5" y="-96.3" font-family="Times New Roman,serif" font-size="14.00">000001a5ef4617a0</text>
</g>
<!-- Node_000001a5ef4616b0&#45;&gt;Node_000001a5ef461700 -->
<g id="edge7" class="edge">
<title>Node_000001a5ef4616b0:left&#45;&gt;Node_000001a5ef461700</title>
<path fill="none" stroke="black" d="M162.5,-267C157.38,-267 147.92,-209.64 141.66,-167.58"/>
<polygon fill="black" stroke="black" points="145.1,-166.91 140.19,-157.53 138.18,-167.93 145.1,-166.91"/>
<text text-anchor="middle" x="154.5" y="-179.8" font-family="Times New Roman,serif" font-size="14.00">No</text>
</g>
<!-- Node_000001a5ef4617f0 -->
<g id="node9" class="node">
<title>Node_000001a5ef4617f0</title>
<polygon fill="none" stroke="black" points="214.5,-105 214.5,-141 268.5,-141 268.5,-105 214.5,-105"/>
<text text-anchor="middle" x="241.5" y="-119.3" font-family="Times New Roman,serif" font-size="14.00">juice</text>
</g>
<!-- Node_000001a5ef4616b0&#45;&gt;Node_000001a5ef4617f0 -->
<g id="edge8" class="edge">
<title>Node_000001a5ef4616b0:right&#45;&gt;Node_000001a5ef4617f0</title>
<path fill="none" stroke="black" d="M224.5,-209C224.5,-189.37 228.91,-167.68 233.24,-151.12"/>
<polygon fill="black" stroke="black" points="236.73,-151.63 236.03,-141.06 229.99,-149.76 236.73,-151.63"/>
<text text-anchor="middle" x="238.5" y="-179.8" font-family="Times New Roman,serif" font-size="14.00">Yes</text>
</g>
<!-- Node_000001a5ef461940 -->
<g id="node6" class="node">
<title>Node_000001a5ef461940</title>
<polygon fill="none" stroke="black" points="304,-88.5 304,-157.5 423,-157.5 423,-88.5 304,-88.5"/>
<text text-anchor="middle" x="363.5" y="-142.3" font-family="Times New Roman,serif" font-size="14.00">NaN</text>
<polyline fill="none" stroke="black" points="304,-134.5 423,-134.5 "/>
<text text-anchor="middle" x="363.5" y="-119.3" font-family="Times New Roman,serif" font-size="14.00">Is it a fruit?</text>
<polyline fill="none" stroke="black" points="304,-111.5 423,-111.5 "/>
<text text-anchor="middle" x="363.5" y="-96.3" font-family="Times New Roman,serif" font-size="14.00">000001a5ef4618f0</text>
</g>
<!-- Node_000001a5ef461840&#45;&gt;Node_000001a5ef461940 -->
<g id="edge5" class="edge">
<title>Node_000001a5ef461840:left&#45;&gt;Node_000001a5ef461940</title>
<path fill="none" stroke="black" d="M363.5,-280C363.5,-286.72 419.29,-283.79 424,-279 454.47,-248.02 428.24,-199.92 401.42,-165.53"/>
<polygon fill="black" stroke="black" points="403.99,-163.13 394.99,-157.53 398.53,-167.52 403.99,-163.13"/>
<text text-anchor="middle" x="425.5" y="-179.8" font-family="Times New Roman,serif" font-size="14.00">No</text>
</g>
<!-- Node_000001a5ef4618f0 -->
<g id="node7" class="node">
<title>Node_000001a5ef4618f0</title>
<polygon fill="none" stroke="black" points="331,-0.5 331,-36.5 396,-36.5 396,-0.5 331,-0.5"/>
<text text-anchor="middle" x="363.5" y="-14.8" font-family="Times New Roman,serif" font-size="14.00">pumpkin</text>
</g>
<!-- Node_000001a5ef461940&#45;&gt;Node_000001a5ef4618f0 -->
<g id="edge6" class="edge">
<title>Node_000001a5ef461940:right&#45;&gt;Node_000001a5ef4618f0</title>
<path fill="none" stroke="black" d="M363.5,-88C363.5,-74.48 363.5,-59.46 363.5,-46.93"/>
<polygon fill="black" stroke="black" points="367,-46.67 363.5,-36.67 360,-46.67 367,-46.67"/>
<text text-anchor="middle" x="374.5" y="-58.8" font-family="Times New Roman,serif" font-size="14.00">Yes</text>
</g>
<!-- Node_000001a5ef461750 -->
<g id="node10" class="node">
<title>Node_000001a5ef461750</title>
<polygon fill="none" stroke="black" points="66.5,-0.5 66.5,-36.5 128.5,-36.5 128.5,-0.5 66.5,-0.5"/>
<text text-anchor="middle" x="97.5" y="-14.8" font-family="Times New Roman,serif" font-size="14.00">Sausage</text>
</g>
<!-- Node_000001a5ef461700&#45;&gt;Node_000001a5ef461750 -->
<g id="edge9" class="edge">
<title>Node_000001a5ef461700:left&#45;&gt;Node_000001a5ef461750</title>
<path fill="none" stroke="black" d="M73.5,-146C32.9,-146 61.98,-82.34 82.31,-45.34"/>
<polygon fill="black" stroke="black" points="85.4,-46.99 87.25,-36.56 79.3,-43.56 85.4,-46.99"/>
<text text-anchor="middle" x="85.5" y="-58.8" font-family="Times New Roman,serif" font-size="14.00">No</text>
</g>
<!-- Node_000001a5ef4617a0 -->
<g id="node11" class="node">
<title>Node_000001a5ef4617a0</title>
<polygon fill="none" stroke="black" points="146.5,-0.5 146.5,-36.5 200.5,-36.5 200.5,-0.5 146.5,-0.5"/>
<text text-anchor="middle" x="173.5" y="-14.8" font-family="Times New Roman,serif" font-size="14.00">Wine</text>
</g>
<!-- Node_000001a5ef461700&#45;&gt;Node_000001a5ef4617a0 -->
<g id="edge10" class="edge">
<title>Node_000001a5ef461700:right&#45;&gt;Node_000001a5ef4617a0</title>
<path fill="none" stroke="black" d="M197.5,-100C209.04,-100 197.15,-69.26 186.38,-45.77"/>
<polygon fill="black" stroke="black" points="189.48,-44.13 182.06,-36.57 183.15,-47.11 189.48,-44.13"/>
<text text-anchor="middle" x="207.5" y="-58.8" font-family="Times New Roman,serif" font-size="14.00">Yes</text>
</g>
</g>
</svg>
