<?xml version="1.0" encoding="UTF-8" standalone="no"?>
<!DOCTYPE svg PUBLIC "-//W3C//DTD SVG 1.1//EN"
 "http://www.w3.org/Graphics/SVG/1.1/DTD/svg11.dtd">
<!-- Generated by graphviz version 2.49.3 (20211023.0002)
 -->
<!-- Title: Tree Pages: 1 -->
<svg width="367pt" height="529pt"
 viewBox="0.00 0.00 366.50 529.00" xmlns="http://www.w3.org/2000/svg" xmlns:xlink="http://www.w3.org/1999/xlink">
<g id="graph0" class="graph" transform="scale(1 1) rotate(0) translate(4 525)">
<title>Tree</title>
<polygon fill="white" stroke="transparent" points="-4,4 -4,-525 362.5,-525 362.5,4 -4,4"/>
<!-- Node_0000020ab7f71520 -->
<g id="node1" class="node">
<title>Node_0000020ab7f71520</title>
<polygon fill="none" stroke="black" points="102.5,-451.5 102.5,-520.5 224.5,-520.5 224.5,-451.5 102.5,-451.5"/>
<text text-anchor="middle" x="163.5" y="-505.3" font-family="Times New Roman,serif" font-size="14.00">0000020ab7f71570</text>
<polyline fill="none" stroke="black" points="102.5,-497.5 224.5,-497.5 "/>
<text text-anchor="middle" x="163.5" y="-482.3" font-family="Times New Roman,serif" font-size="14.00">Cool?</text>
<polyline fill="none" stroke="black" points="102.5,-474.5 224.5,-474.5 "/>
<text text-anchor="middle" x="163.5" y="-459.3" font-family="Times New Roman,serif" font-size="14.00">0000020ab7f71660</text>
</g>
<!-- Node_0000020ab7f71570 -->
<g id="node2" class="node">
<title>Node_0000020ab7f71570</title>
<polygon fill="none" stroke="black" points="32.5,-330.5 32.5,-399.5 154.5,-399.5 154.5,-330.5 32.5,-330.5"/>
<text text-anchor="middle" x="93.5" y="-384.3" font-family="Times New Roman,serif" font-size="14.00">0000020ab7f715c0</text>
<polyline fill="none" stroke="black" points="32.5,-376.5 154.5,-376.5 "/>
<text text-anchor="middle" x="93.5" y="-361.3" font-family="Times New Roman,serif" font-size="14.00">Does it sleep?</text>
<polyline fill="none" stroke="black" points="32.5,-353.5 154.5,-353.5 "/>
<text text-anchor="middle" x="93.5" y="-338.3" font-family="Times New Roman,serif" font-size="14.00">0000020ab7f71610</text>
</g>
<!-- Node_0000020ab7f71520&#45;&gt;Node_0000020ab7f71570 -->
<g id="edge1" class="edge">
<title>Node_0000020ab7f71520:left&#45;&gt;Node_0000020ab7f71570</title>
<path fill="none" stroke="black" d="M101.5,-509C61.1,-509 68.76,-451.4 79.75,-409.31"/>
<polygon fill="black" stroke="black" points="83.16,-410.1 82.43,-399.53 76.41,-408.25 83.16,-410.1"/>
<text text-anchor="middle" x="86.5" y="-421.8" font-family="Times New Roman,serif" font-size="14.00">No</text>
</g>
<!-- Node_0000020ab7f71660 -->
<g id="node3" class="node">
<title>Node_0000020ab7f71660</title>
<polygon fill="none" stroke="black" points="173,-330.5 173,-399.5 296,-399.5 296,-330.5 173,-330.5"/>
<text text-anchor="middle" x="234.5" y="-384.3" font-family="Times New Roman,serif" font-size="14.00">0000020ab7f716b0</text>
<polyline fill="none" stroke="black" points="173,-376.5 296,-376.5 "/>
<text text-anchor="middle" x="234.5" y="-361.3" font-family="Times New Roman,serif" font-size="14.00">Is it yummy?</text>
<polyline fill="none" stroke="black" points="173,-353.5 296,-353.5 "/>
<text text-anchor="middle" x="234.5" y="-338.3" font-family="Times New Roman,serif" font-size="14.00">0000020ab7f71840</text>
</g>
<!-- Node_0000020ab7f71520&#45;&gt;Node_0000020ab7f71660 -->
<g id="edge2" class="edge">
<title>Node_0000020ab7f71520:right&#45;&gt;Node_0000020ab7f71660</title>
<path fill="none" stroke="black" d="M225.5,-463C248.57,-463 249.61,-435.46 245.55,-409.74"/>
<polygon fill="black" stroke="black" points="248.95,-408.86 243.7,-399.65 242.06,-410.12 248.95,-408.86"/>
<text text-anchor="middle" x="258.5" y="-421.8" font-family="Times New Roman,serif" font-size="14.00">Yes</text>
</g>
<!-- Node_0000020ab7f715c0 -->
<g id="node10" class="node">
<title>Node_0000020ab7f715c0</title>
<polygon fill="none" stroke="black" points="0,-226 0,-262 65,-262 65,-226 0,-226"/>
<text text-anchor="middle" x="32.5" y="-240.3" font-family="Times New Roman,serif" font-size="14.00">Program</text>
</g>
<!-- Node_0000020ab7f71570&#45;&gt;Node_0000020ab7f715c0 -->
<g id="edge9" class="edge">
<title>Node_0000020ab7f71570:left&#45;&gt;Node_0000020ab7f715c0</title>
<path fill="none" stroke="black" d="M31.5,-388C-14.49,-388 6.6,-313.14 21.77,-271.74"/>
<polygon fill="black" stroke="black" points="25.1,-272.84 25.36,-262.25 18.55,-270.36 25.1,-272.84"/>
<text text-anchor="middle" x="22.5" y="-300.8" font-family="Times New Roman,serif" font-size="14.00">No</text>
</g>
<!-- Node_0000020ab7f71610 -->
<g id="node11" class="node">
<title>Node_0000020ab7f71610</title>
<polygon fill="none" stroke="black" points="83.5,-226 83.5,-262 137.5,-262 137.5,-226 83.5,-226"/>
<text text-anchor="middle" x="110.5" y="-240.3" font-family="Times New Roman,serif" font-size="14.00">You</text>
</g>
<!-- Node_0000020ab7f71570&#45;&gt;Node_0000020ab7f71610 -->
<g id="edge10" class="edge">
<title>Node_0000020ab7f71570:right&#45;&gt;Node_0000020ab7f71610</title>
<path fill="none" stroke="black" d="M93.5,-330C93.5,-310.37 97.91,-288.68 102.24,-272.12"/>
<polygon fill="black" stroke="black" points="105.73,-272.63 105.03,-262.06 98.99,-270.76 105.73,-272.63"/>
<text text-anchor="middle" x="107.5" y="-300.8" font-family="Times New Roman,serif" font-size="14.00">Yes</text>
</g>
<!-- Node_0000020ab7f716b0 -->
<g id="node4" class="node">
<title>Node_0000020ab7f716b0</title>
<polygon fill="none" stroke="black" points="164.5,-209.5 164.5,-278.5 286.5,-278.5 286.5,-209.5 164.5,-209.5"/>
<text text-anchor="middle" x="225.5" y="-263.3" font-family="Times New Roman,serif" font-size="14.00">0000020ab7f71700</text>
<polyline fill="none" stroke="black" points="164.5,-255.5 286.5,-255.5 "/>
<text text-anchor="middle" x="225.5" y="-240.3" font-family="Times New Roman,serif" font-size="14.00">Is it fresh?</text>
<polyline fill="none" stroke="black" points="164.5,-232.5 286.5,-232.5 "/>
<text text-anchor="middle" x="225.5" y="-217.3" font-family="Times New Roman,serif" font-size="14.00">0000020ab7f717f0</text>
</g>
<!-- Node_0000020ab7f71660&#45;&gt;Node_0000020ab7f716b0 -->
<g id="edge3" class="edge">
<title>Node_0000020ab7f71660:left&#45;&gt;Node_0000020ab7f716b0</title>
<path fill="none" stroke="black" d="M234.5,-401C234.5,-407.83 291.21,-404.87 296,-400 317.82,-377.82 306.56,-359.27 296,-330 290.29,-314.17 280.21,-299.2 269.42,-286.36"/>
<polygon fill="black" stroke="black" points="271.88,-283.86 262.65,-278.66 266.62,-288.48 271.88,-283.86"/>
<text text-anchor="middle" x="297.5" y="-300.8" font-family="Times New Roman,serif" font-size="14.00">No</text>
</g>
<!-- Node_0000020ab7f71840 -->
<g id="node5" class="node">
<title>Node_0000020ab7f71840</title>
<polygon fill="none" stroke="black" points="304.5,-226 304.5,-262 358.5,-262 358.5,-226 304.5,-226"/>
<text text-anchor="middle" x="331.5" y="-240.3" font-family="Times New Roman,serif" font-size="14.00">Algem</text>
</g>
<!-- Node_0000020ab7f71660&#45;&gt;Node_0000020ab7f71840 -->
<g id="edge4" class="edge">
<title>Node_0000020ab7f71660:right&#45;&gt;Node_0000020ab7f71840</title>
<path fill="none" stroke="black" d="M297.5,-342C327.09,-342 332.61,-301.3 332.83,-272.63"/>
<polygon fill="black" stroke="black" points="336.33,-272.29 332.69,-262.34 329.33,-272.39 336.33,-272.29"/>
<text text-anchor="middle" x="342.5" y="-300.8" font-family="Times New Roman,serif" font-size="14.00">Yes</text>
</g>
<!-- Node_0000020ab7f71700 -->
<g id="node6" class="node">
<title>Node_0000020ab7f71700</title>
<polygon fill="none" stroke="black" points="95.5,-88.5 95.5,-157.5 217.5,-157.5 217.5,-88.5 95.5,-88.5"/>
<text text-anchor="middle" x="156.5" y="-142.3" font-family="Times New Roman,serif" font-size="14.00">0000020ab7f71750</text>
<polyline fill="none" stroke="black" points="95.5,-134.5 217.5,-134.5 "/>
<text text-anchor="middle" x="156.5" y="-119.3" font-family="Times New Roman,serif" font-size="14.00">Pink?</text>
<polyline fill="none" stroke="black" points="95.5,-111.5 217.5,-111.5 "/>
<text text-anchor="middle" x="156.5" y="-96.3" font-family="Times New Roman,serif" font-size="14.00">0000020ab7f717a0</text>
</g>
<!-- Node_0000020ab7f716b0&#45;&gt;Node_0000020ab7f71700 -->
<g id="edge5" class="edge">
<title>Node_0000020ab7f716b0:left&#45;&gt;Node_0000020ab7f71700</title>
<path fill="none" stroke="black" d="M163.5,-267C143.35,-267 145.92,-209.64 150.51,-167.58"/>
<polygon fill="black" stroke="black" points="154,-167.86 151.67,-157.53 147.04,-167.06 154,-167.86"/>
<text text-anchor="middle" x="158.5" y="-179.8" font-family="Times New Roman,serif" font-size="14.00">No</text>
</g>
<!-- Node_0000020ab7f717f0 -->
<g id="node7" class="node">
<title>Node_0000020ab7f717f0</title>
<polygon fill="none" stroke="black" points="235.5,-105 235.5,-141 289.5,-141 289.5,-105 235.5,-105"/>
<text text-anchor="middle" x="262.5" y="-119.3" font-family="Times New Roman,serif" font-size="14.00">juice</text>
</g>
<!-- Node_0000020ab7f716b0&#45;&gt;Node_0000020ab7f717f0 -->
<g id="edge6" class="edge">
<title>Node_0000020ab7f716b0:right&#45;&gt;Node_0000020ab7f717f0</title>
<path fill="none" stroke="black" d="M287.5,-221C302.05,-221 286.91,-179.58 274.67,-150.88"/>
<polygon fill="black" stroke="black" points="277.72,-149.11 270.51,-141.34 271.3,-151.91 277.72,-149.11"/>
<text text-anchor="middle" x="300.5" y="-179.8" font-family="Times New Roman,serif" font-size="14.00">Yes</text>
</g>
<!-- Node_0000020ab7f71750 -->
<g id="node8" class="node">
<title>Node_0000020ab7f71750</title>
<polygon fill="none" stroke="black" points="87.5,-0.5 87.5,-36.5 149.5,-36.5 149.5,-0.5 87.5,-0.5"/>
<text text-anchor="middle" x="118.5" y="-14.8" font-family="Times New Roman,serif" font-size="14.00">Sausage</text>
</g>
<!-- Node_0000020ab7f71700&#45;&gt;Node_0000020ab7f71750 -->
<g id="edge7" class="edge">
<title>Node_0000020ab7f71700:left&#45;&gt;Node_0000020ab7f71750</title>
<path fill="none" stroke="black" d="M94.5,-146C53.9,-146 82.98,-82.34 103.31,-45.34"/>
<polygon fill="black" stroke="black" points="106.4,-46.99 108.25,-36.56 100.3,-43.56 106.4,-46.99"/>
<text text-anchor="middle" x="106.5" y="-58.8" font-family="Times New Roman,serif" font-size="14.00">No</text>
</g>
<!-- Node_0000020ab7f717a0 -->
<g id="node9" class="node">
<title>Node_0000020ab7f717a0</title>
<polygon fill="none" stroke="black" points="167.5,-0.5 167.5,-36.5 221.5,-36.5 221.5,-0.5 167.5,-0.5"/>
<text text-anchor="middle" x="194.5" y="-14.8" font-family="Times New Roman,serif" font-size="14.00">Wine</text>
</g>
<!-- Node_0000020ab7f71700&#45;&gt;Node_0000020ab7f717a0 -->
<g id="edge8" class="edge">
<title>Node_0000020ab7f71700:right&#45;&gt;Node_0000020ab7f717a0</title>
<path fill="none" stroke="black" d="M218.5,-100C230.04,-100 218.15,-69.26 207.38,-45.77"/>
<polygon fill="black" stroke="black" points="210.48,-44.13 203.06,-36.57 204.15,-47.11 210.48,-44.13"/>
<text text-anchor="middle" x="228.5" y="-58.8" font-family="Times New Roman,serif" font-size="14.00">Yes</text>
</g>
</g>
</svg>
