<?xml version="1.0" encoding="UTF-8" standalone="no"?>
<!DOCTYPE svg PUBLIC "-//W3C//DTD SVG 1.1//EN"
 "http://www.w3.org/Graphics/SVG/1.1/DTD/svg11.dtd">
<!-- Generated by graphviz version 2.49.3 (20211023.0002)
 -->
<!-- Title: Tree Pages: 1 -->
<svg width="508pt" height="771pt"
 viewBox="0.00 0.00 507.81 771.00" xmlns="http://www.w3.org/2000/svg" xmlns:xlink="http://www.w3.org/1999/xlink">
<g id="graph0" class="graph" transform="scale(1 1) rotate(0) translate(4 767)">
<title>Tree</title>
<polygon fill="white" stroke="transparent" points="-4,4 -4,-767 503.81,-767 503.81,4 -4,4"/>
<!-- Node_000001ef54101520 -->
<g id="node1" class="node">
<title>Node_000001ef54101520</title>
<polygon fill="none" stroke="black" points="158,-693.5 158,-762.5 280,-762.5 280,-693.5 158,-693.5"/>
<text text-anchor="middle" x="219" y="-747.3" font-family="Times New Roman,serif" font-size="14.00">000001ef54101570</text>
<polyline fill="none" stroke="black" points="158,-739.5 280,-739.5 "/>
<text text-anchor="middle" x="219" y="-724.3" font-family="Times New Roman,serif" font-size="14.00">Cool?</text>
<polyline fill="none" stroke="black" points="158,-716.5 280,-716.5 "/>
<text text-anchor="middle" x="219" y="-701.3" font-family="Times New Roman,serif" font-size="14.00">000001ef54101700</text>
</g>
<!-- Node_000001ef54101570 -->
<g id="node2" class="node">
<title>Node_000001ef54101570</title>
<polygon fill="none" stroke="black" points="89,-572.5 89,-641.5 211,-641.5 211,-572.5 89,-572.5"/>
<text text-anchor="middle" x="150" y="-626.3" font-family="Times New Roman,serif" font-size="14.00">000001ef541015c0</text>
<polyline fill="none" stroke="black" points="89,-618.5 211,-618.5 "/>
<text text-anchor="middle" x="150" y="-603.3" font-family="Times New Roman,serif" font-size="14.00">Does it sleep?</text>
<polyline fill="none" stroke="black" points="89,-595.5 211,-595.5 "/>
<text text-anchor="middle" x="150" y="-580.3" font-family="Times New Roman,serif" font-size="14.00">000001ef541016b0</text>
</g>
<!-- Node_000001ef54101520&#45;&gt;Node_000001ef54101570 -->
<g id="edge1" class="edge">
<title>Node_000001ef54101520:left&#45;&gt;Node_000001ef54101570</title>
<path fill="none" stroke="black" d="M157,-751C116.62,-751 124.67,-693.4 135.95,-651.31"/>
<polygon fill="black" stroke="black" points="139.36,-652.1 138.7,-641.53 132.62,-650.21 139.36,-652.1"/>
<text text-anchor="middle" x="143" y="-663.8" font-family="Times New Roman,serif" font-size="14.00">No</text>
</g>
<!-- Node_000001ef54101700 -->
<g id="node3" class="node">
<title>Node_000001ef54101700</title>
<polygon fill="none" stroke="black" points="229,-572.5 229,-641.5 351,-641.5 351,-572.5 229,-572.5"/>
<text text-anchor="middle" x="290" y="-626.3" font-family="Times New Roman,serif" font-size="14.00">000001ef54101750</text>
<polyline fill="none" stroke="black" points="229,-618.5 351,-618.5 "/>
<text text-anchor="middle" x="290" y="-603.3" font-family="Times New Roman,serif" font-size="14.00">Is it yummy?</text>
<polyline fill="none" stroke="black" points="229,-595.5 351,-595.5 "/>
<text text-anchor="middle" x="290" y="-580.3" font-family="Times New Roman,serif" font-size="14.00">000001ef54101980</text>
</g>
<!-- Node_000001ef54101520&#45;&gt;Node_000001ef54101700 -->
<g id="edge2" class="edge">
<title>Node_000001ef54101520:right&#45;&gt;Node_000001ef54101700</title>
<path fill="none" stroke="black" d="M281,-705C304.07,-705 305.11,-677.46 301.05,-651.74"/>
<polygon fill="black" stroke="black" points="304.45,-650.86 299.2,-641.65 297.56,-652.12 304.45,-650.86"/>
<text text-anchor="middle" x="314" y="-663.8" font-family="Times New Roman,serif" font-size="14.00">Yes</text>
</g>
<!-- Node_000001ef541015c0 -->
<g id="node14" class="node">
<title>Node_000001ef541015c0</title>
<polygon fill="none" stroke="black" points="0,-451.5 0,-520.5 122,-520.5 122,-451.5 0,-451.5"/>
<text text-anchor="middle" x="61" y="-505.3" font-family="Times New Roman,serif" font-size="14.00">000001ef54101610</text>
<polyline fill="none" stroke="black" points="0,-497.5 122,-497.5 "/>
<text text-anchor="middle" x="61" y="-482.3" font-family="Times New Roman,serif" font-size="14.00">Program</text>
<polyline fill="none" stroke="black" points="0,-474.5 122,-474.5 "/>
<text text-anchor="middle" x="61" y="-459.3" font-family="Times New Roman,serif" font-size="14.00">NaN</text>
</g>
<!-- Node_000001ef54101570&#45;&gt;Node_000001ef541015c0 -->
<g id="edge13" class="edge">
<title>Node_000001ef54101570:left&#45;&gt;Node_000001ef541015c0</title>
<path fill="none" stroke="black" d="M88,-630C47.04,-630 47.13,-572.64 52.71,-530.58"/>
<polygon fill="black" stroke="black" points="56.19,-530.93 54.18,-520.53 49.27,-529.91 56.19,-530.93"/>
<text text-anchor="middle" x="61" y="-542.8" font-family="Times New Roman,serif" font-size="14.00">No</text>
</g>
<!-- Node_000001ef541016b0 -->
<g id="node15" class="node">
<title>Node_000001ef541016b0</title>
<polygon fill="none" stroke="black" points="140,-468 140,-504 194,-504 194,-468 140,-468"/>
<text text-anchor="middle" x="167" y="-482.3" font-family="Times New Roman,serif" font-size="14.00">You</text>
</g>
<!-- Node_000001ef54101570&#45;&gt;Node_000001ef541016b0 -->
<g id="edge14" class="edge">
<title>Node_000001ef54101570:right&#45;&gt;Node_000001ef541016b0</title>
<path fill="none" stroke="black" d="M150,-572C150,-552.37 154.41,-530.68 158.74,-514.12"/>
<polygon fill="black" stroke="black" points="162.23,-514.63 161.53,-504.06 155.49,-512.76 162.23,-514.63"/>
<text text-anchor="middle" x="164" y="-542.8" font-family="Times New Roman,serif" font-size="14.00">Yes</text>
</g>
<!-- Node_000001ef54101750 -->
<g id="node4" class="node">
<title>Node_000001ef54101750</title>
<polygon fill="none" stroke="black" points="224,-451.5 224,-520.5 346,-520.5 346,-451.5 224,-451.5"/>
<text text-anchor="middle" x="285" y="-505.3" font-family="Times New Roman,serif" font-size="14.00">000001ef541017a0</text>
<polyline fill="none" stroke="black" points="224,-497.5 346,-497.5 "/>
<text text-anchor="middle" x="285" y="-482.3" font-family="Times New Roman,serif" font-size="14.00">Is it fresh?</text>
<polyline fill="none" stroke="black" points="224,-474.5 346,-474.5 "/>
<text text-anchor="middle" x="285" y="-459.3" font-family="Times New Roman,serif" font-size="14.00">000001ef54101930</text>
</g>
<!-- Node_000001ef54101700&#45;&gt;Node_000001ef54101750 -->
<g id="edge3" class="edge">
<title>Node_000001ef54101700:left&#45;&gt;Node_000001ef54101750</title>
<path fill="none" stroke="black" d="M290,-643C290,-649.78 346.25,-646.83 351,-642 372.82,-619.82 361.1,-601.43 351,-572 351,-572 334.12,-550.26 317.44,-528.77"/>
<polygon fill="black" stroke="black" points="319.98,-526.35 311.08,-520.59 314.45,-530.64 319.98,-526.35"/>
<text text-anchor="middle" x="346" y="-542.8" font-family="Times New Roman,serif" font-size="14.00">No</text>
</g>
<!-- Node_000001ef54101980 -->
<g id="node5" class="node">
<title>Node_000001ef54101980</title>
<polygon fill="none" stroke="black" points="364,-451.5 364,-520.5 486,-520.5 486,-451.5 364,-451.5"/>
<text text-anchor="middle" x="425" y="-505.3" font-family="Times New Roman,serif" font-size="14.00">000001ef541019d0</text>
<polyline fill="none" stroke="black" points="364,-497.5 486,-497.5 "/>
<text text-anchor="middle" x="425" y="-482.3" font-family="Times New Roman,serif" font-size="14.00">Algem</text>
<polyline fill="none" stroke="black" points="364,-474.5 486,-474.5 "/>
<text text-anchor="middle" x="425" y="-459.3" font-family="Times New Roman,serif" font-size="14.00">NaN</text>
</g>
<!-- Node_000001ef54101700&#45;&gt;Node_000001ef54101980 -->
<g id="edge4" class="edge">
<title>Node_000001ef54101700:right&#45;&gt;Node_000001ef54101980</title>
<path fill="none" stroke="black" d="M352,-584C381,-584 399.92,-555.98 411.21,-530.05"/>
<polygon fill="black" stroke="black" points="414.51,-531.24 415.03,-520.65 408.02,-528.6 414.51,-531.24"/>
<text text-anchor="middle" x="417" y="-542.8" font-family="Times New Roman,serif" font-size="14.00">Yes</text>
</g>
<!-- Node_000001ef541017a0 -->
<g id="node8" class="node">
<title>Node_000001ef541017a0</title>
<polygon fill="none" stroke="black" points="148.5,-330.5 148.5,-399.5 269.5,-399.5 269.5,-330.5 148.5,-330.5"/>
<text text-anchor="middle" x="209" y="-384.3" font-family="Times New Roman,serif" font-size="14.00">000001ef541017f0</text>
<polyline fill="none" stroke="black" points="148.5,-376.5 269.5,-376.5 "/>
<text text-anchor="middle" x="209" y="-361.3" font-family="Times New Roman,serif" font-size="14.00">Pink?</text>
<polyline fill="none" stroke="black" points="148.5,-353.5 269.5,-353.5 "/>
<text text-anchor="middle" x="209" y="-338.3" font-family="Times New Roman,serif" font-size="14.00">000001ef541018e0</text>
</g>
<!-- Node_000001ef54101750&#45;&gt;Node_000001ef541017a0 -->
<g id="edge7" class="edge">
<title>Node_000001ef54101750:left&#45;&gt;Node_000001ef541017a0</title>
<path fill="none" stroke="black" d="M223,-509C202.78,-509 202.55,-451.64 205.11,-409.58"/>
<polygon fill="black" stroke="black" points="208.61,-409.74 205.79,-399.53 201.62,-409.27 208.61,-409.74"/>
<text text-anchor="middle" x="214" y="-421.8" font-family="Times New Roman,serif" font-size="14.00">No</text>
</g>
<!-- Node_000001ef54101930 -->
<g id="node9" class="node">
<title>Node_000001ef54101930</title>
<polygon fill="none" stroke="black" points="288,-347 288,-383 342,-383 342,-347 288,-347"/>
<text text-anchor="middle" x="315" y="-361.3" font-family="Times New Roman,serif" font-size="14.00">juice</text>
</g>
<!-- Node_000001ef54101750&#45;&gt;Node_000001ef54101930 -->
<g id="edge8" class="edge">
<title>Node_000001ef54101750:right&#45;&gt;Node_000001ef54101930</title>
<path fill="none" stroke="black" d="M285,-451C285,-430.46 292.88,-408.64 300.57,-392.25"/>
<polygon fill="black" stroke="black" points="303.71,-393.8 305.01,-383.28 297.44,-390.69 303.71,-393.8"/>
<text text-anchor="middle" x="302" y="-421.8" font-family="Times New Roman,serif" font-size="14.00">Yes</text>
</g>
<!-- Node_000001ef541019d0 -->
<g id="node6" class="node">
<title>Node_000001ef541019d0</title>
<polygon fill="none" stroke="black" points="364.5,-330.5 364.5,-399.5 485.5,-399.5 485.5,-330.5 364.5,-330.5"/>
<text text-anchor="middle" x="425" y="-384.3" font-family="Times New Roman,serif" font-size="14.00">000001ef54101a20</text>
<polyline fill="none" stroke="black" points="364.5,-376.5 485.5,-376.5 "/>
<text text-anchor="middle" x="425" y="-361.3" font-family="Times New Roman,serif" font-size="14.00">Is it a fruit?</text>
<polyline fill="none" stroke="black" points="364.5,-353.5 485.5,-353.5 "/>
<text text-anchor="middle" x="425" y="-338.3" font-family="Times New Roman,serif" font-size="14.00">NaN</text>
</g>
<!-- Node_000001ef54101980&#45;&gt;Node_000001ef541019d0 -->
<g id="edge5" class="edge">
<title>Node_000001ef54101980:left&#45;&gt;Node_000001ef541019d0</title>
<path fill="none" stroke="black" d="M425,-522C425,-528.78 481.25,-525.83 486,-521 516.51,-489.99 490.1,-441.9 463.12,-407.51"/>
<polygon fill="black" stroke="black" points="465.67,-405.09 456.66,-399.52 460.23,-409.49 465.67,-405.09"/>
<text text-anchor="middle" x="488" y="-421.8" font-family="Times New Roman,serif" font-size="14.00">No</text>
</g>
<!-- Node_000001ef54101a20 -->
<g id="node7" class="node">
<title>Node_000001ef54101a20</title>
<polygon fill="none" stroke="black" points="392.5,-226 392.5,-262 457.5,-262 457.5,-226 392.5,-226"/>
<text text-anchor="middle" x="425" y="-240.3" font-family="Times New Roman,serif" font-size="14.00">pumpkin</text>
</g>
<!-- Node_000001ef541019d0&#45;&gt;Node_000001ef54101a20 -->
<g id="edge6" class="edge">
<title>Node_000001ef541019d0:left&#45;&gt;Node_000001ef54101a20</title>
<path fill="none" stroke="black" d="M425,-401C425,-407.72 480.79,-404.79 485.5,-400 521.32,-363.58 478.79,-303.53 449.06,-269.86"/>
<polygon fill="black" stroke="black" points="451.51,-267.35 442.2,-262.3 446.33,-272.06 451.51,-267.35"/>
<text text-anchor="middle" x="487" y="-300.8" font-family="Times New Roman,serif" font-size="14.00">No</text>
</g>
<!-- Node_000001ef541017f0 -->
<g id="node10" class="node">
<title>Node_000001ef541017f0</title>
<polygon fill="none" stroke="black" points="117,-209.5 117,-278.5 239,-278.5 239,-209.5 117,-209.5"/>
<text text-anchor="middle" x="178" y="-263.3" font-family="Times New Roman,serif" font-size="14.00">000001ef54101840</text>
<polyline fill="none" stroke="black" points="117,-255.5 239,-255.5 "/>
<text text-anchor="middle" x="178" y="-240.3" font-family="Times New Roman,serif" font-size="14.00">Sausage</text>
<polyline fill="none" stroke="black" points="117,-232.5 239,-232.5 "/>
<text text-anchor="middle" x="178" y="-217.3" font-family="Times New Roman,serif" font-size="14.00">NaN</text>
</g>
<!-- Node_000001ef541017a0&#45;&gt;Node_000001ef541017f0 -->
<g id="edge9" class="edge">
<title>Node_000001ef541017a0:left&#45;&gt;Node_000001ef541017f0</title>
<path fill="none" stroke="black" d="M147,-388C126.32,-388 144.48,-330.16 160.45,-288.05"/>
<polygon fill="black" stroke="black" points="163.79,-289.12 164.12,-278.53 157.26,-286.6 163.79,-289.12"/>
<text text-anchor="middle" x="166" y="-300.8" font-family="Times New Roman,serif" font-size="14.00">No</text>
</g>
<!-- Node_000001ef541018e0 -->
<g id="node11" class="node">
<title>Node_000001ef541018e0</title>
<polygon fill="none" stroke="black" points="257,-226 257,-262 311,-262 311,-226 257,-226"/>
<text text-anchor="middle" x="284" y="-240.3" font-family="Times New Roman,serif" font-size="14.00">Wine</text>
</g>
<!-- Node_000001ef541017a0&#45;&gt;Node_000001ef541018e0 -->
<g id="edge10" class="edge">
<title>Node_000001ef541017a0:right&#45;&gt;Node_000001ef541018e0</title>
<path fill="none" stroke="black" d="M271,-342C278.04,-342 281.42,-301.3 282.92,-272.63"/>
<polygon fill="black" stroke="black" points="286.43,-272.5 283.41,-262.34 279.44,-272.16 286.43,-272.5"/>
<text text-anchor="middle" x="293" y="-300.8" font-family="Times New Roman,serif" font-size="14.00">Yes</text>
</g>
<!-- Node_000001ef54101840 -->
<g id="node12" class="node">
<title>Node_000001ef54101840</title>
<polygon fill="none" stroke="black" points="117,-88.5 117,-157.5 239,-157.5 239,-88.5 117,-88.5"/>
<text text-anchor="middle" x="178" y="-142.3" font-family="Times New Roman,serif" font-size="14.00">000001ef54101890</text>
<polyline fill="none" stroke="black" points="117,-134.5 239,-134.5 "/>
<text text-anchor="middle" x="178" y="-119.3" font-family="Times New Roman,serif" font-size="14.00">Is it pretty?</text>
<polyline fill="none" stroke="black" points="117,-111.5 239,-111.5 "/>
<text text-anchor="middle" x="178" y="-96.3" font-family="Times New Roman,serif" font-size="14.00">NaN</text>
</g>
<!-- Node_000001ef541017f0&#45;&gt;Node_000001ef54101840 -->
<g id="edge11" class="edge">
<title>Node_000001ef541017f0:left&#45;&gt;Node_000001ef54101840</title>
<path fill="none" stroke="black" d="M178,-280C178,-286.78 234.25,-283.83 239,-279 249.91,-267.91 243.76,-223.81 239,-209 234.07,-193.68 225.25,-178.79 215.82,-165.85"/>
<polygon fill="black" stroke="black" points="218.41,-163.49 209.57,-157.66 212.85,-167.73 218.41,-163.49"/>
<text text-anchor="middle" x="240" y="-179.8" font-family="Times New Roman,serif" font-size="14.00">No</text>
</g>
<!-- Node_000001ef54101890 -->
<g id="node13" class="node">
<title>Node_000001ef54101890</title>
<polygon fill="none" stroke="black" points="151,-0.5 151,-36.5 205,-36.5 205,-0.5 151,-0.5"/>
<text text-anchor="middle" x="178" y="-14.8" font-family="Times New Roman,serif" font-size="14.00">hippo</text>
</g>
<!-- Node_000001ef54101840&#45;&gt;Node_000001ef54101890 -->
<g id="edge12" class="edge">
<title>Node_000001ef54101840:left&#45;&gt;Node_000001ef54101890</title>
<path fill="none" stroke="black" d="M178,-159C178,-165.78 234.25,-162.83 239,-158 260.82,-135.82 250.07,-117.08 239,-88 232.52,-70.99 219.67,-55.52 207.43,-43.6"/>
<polygon fill="black" stroke="black" points="209.66,-40.89 199.95,-36.65 204.9,-46.02 209.66,-40.89"/>
<text text-anchor="middle" x="239" y="-58.8" font-family="Times New Roman,serif" font-size="14.00">No</text>
</g>
<!-- Node_000001ef54101610 -->
<g id="node16" class="node">
<title>Node_000001ef54101610</title>
<polygon fill="none" stroke="black" points="0,-330.5 0,-399.5 122,-399.5 122,-330.5 0,-330.5"/>
<text text-anchor="middle" x="61" y="-384.3" font-family="Times New Roman,serif" font-size="14.00">000001ef54101660</text>
<polyline fill="none" stroke="black" points="0,-376.5 122,-376.5 "/>
<text text-anchor="middle" x="61" y="-361.3" font-family="Times New Roman,serif" font-size="14.00">Is it an animal?</text>
<polyline fill="none" stroke="black" points="0,-353.5 122,-353.5 "/>
<text text-anchor="middle" x="61" y="-338.3" font-family="Times New Roman,serif" font-size="14.00">NaN</text>
</g>
<!-- Node_000001ef541015c0&#45;&gt;Node_000001ef54101610 -->
<g id="edge15" class="edge">
<title>Node_000001ef541015c0:left&#45;&gt;Node_000001ef54101610</title>
<path fill="none" stroke="black" d="M61,-522C61,-528.78 117.25,-525.83 122,-521 132.91,-509.91 126.76,-465.81 122,-451 117.07,-435.68 108.25,-420.79 98.82,-407.85"/>
<polygon fill="black" stroke="black" points="101.41,-405.49 92.57,-399.66 95.85,-409.73 101.41,-405.49"/>
<text text-anchor="middle" x="123" y="-421.8" font-family="Times New Roman,serif" font-size="14.00">No</text>
</g>
<!-- Node_000001ef54101660 -->
<g id="node17" class="node">
<title>Node_000001ef54101660</title>
<polygon fill="none" stroke="black" points="34,-226 34,-262 88,-262 88,-226 34,-226"/>
<text text-anchor="middle" x="61" y="-240.3" font-family="Times New Roman,serif" font-size="14.00">camel</text>
</g>
<!-- Node_000001ef54101610&#45;&gt;Node_000001ef54101660 -->
<g id="edge16" class="edge">
<title>Node_000001ef54101610:left&#45;&gt;Node_000001ef54101660</title>
<path fill="none" stroke="black" d="M61,-401C61,-407.78 117.25,-404.83 122,-400 157.86,-363.55 115.08,-303.5 85.19,-269.85"/>
<polygon fill="black" stroke="black" points="87.62,-267.32 78.29,-262.29 82.44,-272.04 87.62,-267.32"/>
<text text-anchor="middle" x="125" y="-300.8" font-family="Times New Roman,serif" font-size="14.00">No</text>
</g>
</g>
</svg>
