<?xml version="1.0" encoding="UTF-8" standalone="no"?>
<!DOCTYPE svg PUBLIC "-//W3C//DTD SVG 1.1//EN"
 "http://www.w3.org/Graphics/SVG/1.1/DTD/svg11.dtd">
<!-- Generated by graphviz version 2.49.3 (20211023.0002)
 -->
<!-- Title: Tree Pages: 1 -->
<svg width="529pt" height="650pt"
 viewBox="0.00 0.00 529.00 650.00" xmlns="http://www.w3.org/2000/svg" xmlns:xlink="http://www.w3.org/1999/xlink">
<g id="graph0" class="graph" transform="scale(1 1) rotate(0) translate(4 646)">
<title>Tree</title>
<polygon fill="white" stroke="transparent" points="-4,4 -4,-646 525,-646 525,4 -4,4"/>
<!-- Node_00000191fdb36f40 -->
<g id="node1" class="node">
<title>Node_00000191fdb36f40</title>
<polygon fill="none" stroke="black" points="159.5,-572.5 159.5,-641.5 284.5,-641.5 284.5,-572.5 159.5,-572.5"/>
<text text-anchor="middle" x="222" y="-626.3" font-family="Times New Roman,serif" font-size="14.00">00000191fdb31520</text>
<polyline fill="none" stroke="black" points="159.5,-618.5 284.5,-618.5 "/>
<text text-anchor="middle" x="222" y="-603.3" font-family="Times New Roman,serif" font-size="14.00">Cool?</text>
<polyline fill="none" stroke="black" points="159.5,-595.5 284.5,-595.5 "/>
<text text-anchor="middle" x="222" y="-580.3" font-family="Times New Roman,serif" font-size="14.00">00000191fdb316b0</text>
</g>
<!-- Node_00000191fdb31520 -->
<g id="node2" class="node">
<title>Node_00000191fdb31520</title>
<polygon fill="none" stroke="black" points="90,-451.5 90,-520.5 214,-520.5 214,-451.5 90,-451.5"/>
<text text-anchor="middle" x="152" y="-505.3" font-family="Times New Roman,serif" font-size="14.00">00000191fdb31570</text>
<polyline fill="none" stroke="black" points="90,-497.5 214,-497.5 "/>
<text text-anchor="middle" x="152" y="-482.3" font-family="Times New Roman,serif" font-size="14.00">Does it sleep?</text>
<polyline fill="none" stroke="black" points="90,-474.5 214,-474.5 "/>
<text text-anchor="middle" x="152" y="-459.3" font-family="Times New Roman,serif" font-size="14.00">00000191fdb31660</text>
</g>
<!-- Node_00000191fdb36f40&#45;&gt;Node_00000191fdb31520 -->
<g id="edge1" class="edge">
<title>Node_00000191fdb36f40:left&#45;&gt;Node_00000191fdb31520</title>
<path fill="none" stroke="black" d="M158,-630C117.63,-630 126.08,-572.4 137.65,-530.31"/>
<polygon fill="black" stroke="black" points="141.07,-531.11 140.47,-520.53 134.34,-529.17 141.07,-531.11"/>
<text text-anchor="middle" x="144" y="-542.8" font-family="Times New Roman,serif" font-size="14.00">No</text>
</g>
<!-- Node_00000191fdb316b0 -->
<g id="node3" class="node">
<title>Node_00000191fdb316b0</title>
<polygon fill="none" stroke="black" points="232,-451.5 232,-520.5 356,-520.5 356,-451.5 232,-451.5"/>
<text text-anchor="middle" x="294" y="-505.3" font-family="Times New Roman,serif" font-size="14.00">00000191fdb31700</text>
<polyline fill="none" stroke="black" points="232,-497.5 356,-497.5 "/>
<text text-anchor="middle" x="294" y="-482.3" font-family="Times New Roman,serif" font-size="14.00">Is it yummy?</text>
<polyline fill="none" stroke="black" points="232,-474.5 356,-474.5 "/>
<text text-anchor="middle" x="294" y="-459.3" font-family="Times New Roman,serif" font-size="14.00">00000191fdb31890</text>
</g>
<!-- Node_00000191fdb36f40&#45;&gt;Node_00000191fdb316b0 -->
<g id="edge2" class="edge">
<title>Node_00000191fdb36f40:right&#45;&gt;Node_00000191fdb316b0</title>
<path fill="none" stroke="black" d="M286,-584C309.05,-584 309.81,-556.46 305.49,-530.74"/>
<polygon fill="black" stroke="black" points="308.87,-529.81 303.54,-520.65 302,-531.14 308.87,-529.81"/>
<text text-anchor="middle" x="319" y="-542.8" font-family="Times New Roman,serif" font-size="14.00">Yes</text>
</g>
<!-- Node_00000191fdb31570 -->
<g id="node14" class="node">
<title>Node_00000191fdb31570</title>
<polygon fill="none" stroke="black" points="0,-330.5 0,-399.5 124,-399.5 124,-330.5 0,-330.5"/>
<text text-anchor="middle" x="62" y="-384.3" font-family="Times New Roman,serif" font-size="14.00">00000191fdb315c0</text>
<polyline fill="none" stroke="black" points="0,-376.5 124,-376.5 "/>
<text text-anchor="middle" x="62" y="-361.3" font-family="Times New Roman,serif" font-size="14.00">Program</text>
<polyline fill="none" stroke="black" points="0,-353.5 124,-353.5 "/>
<text text-anchor="middle" x="62" y="-338.3" font-family="Times New Roman,serif" font-size="14.00">NaN</text>
</g>
<!-- Node_00000191fdb31520&#45;&gt;Node_00000191fdb31570 -->
<g id="edge13" class="edge">
<title>Node_00000191fdb31520:left&#45;&gt;Node_00000191fdb31570</title>
<path fill="none" stroke="black" d="M89,-509C48.04,-509 48.13,-451.64 53.71,-409.58"/>
<polygon fill="black" stroke="black" points="57.19,-409.93 55.18,-399.53 50.27,-408.91 57.19,-409.93"/>
<text text-anchor="middle" x="62" y="-421.8" font-family="Times New Roman,serif" font-size="14.00">No</text>
</g>
<!-- Node_00000191fdb31660 -->
<g id="node15" class="node">
<title>Node_00000191fdb31660</title>
<polygon fill="none" stroke="#ff6a6a" points="142,-347 142,-383 196,-383 196,-347 142,-347"/>
<text text-anchor="middle" x="169" y="-361.3" font-family="Times New Roman,serif" font-size="14.00">You</text>
</g>
<!-- Node_00000191fdb31520&#45;&gt;Node_00000191fdb31660 -->
<g id="edge14" class="edge">
<title>Node_00000191fdb31520:right&#45;&gt;Node_00000191fdb31660</title>
<path fill="none" stroke="black" d="M152,-451C152,-431.37 156.41,-409.68 160.74,-393.12"/>
<polygon fill="black" stroke="black" points="164.23,-393.63 163.53,-383.06 157.49,-391.76 164.23,-393.63"/>
<text text-anchor="middle" x="166" y="-421.8" font-family="Times New Roman,serif" font-size="14.00">Yes</text>
</g>
<!-- Node_00000191fdb31700 -->
<g id="node4" class="node">
<title>Node_00000191fdb31700</title>
<polygon fill="none" stroke="black" points="225,-330.5 225,-399.5 349,-399.5 349,-330.5 225,-330.5"/>
<text text-anchor="middle" x="287" y="-384.3" font-family="Times New Roman,serif" font-size="14.00">00000191fdb31750</text>
<polyline fill="none" stroke="black" points="225,-376.5 349,-376.5 "/>
<text text-anchor="middle" x="287" y="-361.3" font-family="Times New Roman,serif" font-size="14.00">Is it fresh?</text>
<polyline fill="none" stroke="black" points="225,-353.5 349,-353.5 "/>
<text text-anchor="middle" x="287" y="-338.3" font-family="Times New Roman,serif" font-size="14.00">00000191fdb31840</text>
</g>
<!-- Node_00000191fdb316b0&#45;&gt;Node_00000191fdb31700 -->
<g id="edge3" class="edge">
<title>Node_00000191fdb316b0:left&#45;&gt;Node_00000191fdb31700</title>
<path fill="none" stroke="black" d="M294,-522C294,-528.89 351.17,-525.91 356,-521 377.82,-498.82 366.4,-480.32 356,-451 355.49,-449.57 338.33,-428.42 321.24,-407.58"/>
<polygon fill="black" stroke="black" points="323.79,-405.16 314.74,-399.65 318.37,-409.6 323.79,-405.16"/>
<text text-anchor="middle" x="350" y="-421.8" font-family="Times New Roman,serif" font-size="14.00">No</text>
</g>
<!-- Node_00000191fdb31890 -->
<g id="node5" class="node">
<title>Node_00000191fdb31890</title>
<polygon fill="none" stroke="black" points="367.5,-330.5 367.5,-399.5 490.5,-399.5 490.5,-330.5 367.5,-330.5"/>
<text text-anchor="middle" x="429" y="-384.3" font-family="Times New Roman,serif" font-size="14.00">00000191fdb318e0</text>
<polyline fill="none" stroke="black" points="367.5,-376.5 490.5,-376.5 "/>
<text text-anchor="middle" x="429" y="-361.3" font-family="Times New Roman,serif" font-size="14.00">Algem</text>
<polyline fill="none" stroke="black" points="367.5,-353.5 490.5,-353.5 "/>
<text text-anchor="middle" x="429" y="-338.3" font-family="Times New Roman,serif" font-size="14.00">NaN</text>
</g>
<!-- Node_00000191fdb316b0&#45;&gt;Node_00000191fdb31890 -->
<g id="edge4" class="edge">
<title>Node_00000191fdb316b0:right&#45;&gt;Node_00000191fdb31890</title>
<path fill="none" stroke="black" d="M357,-463C385.86,-463 404.5,-434.98 415.56,-409.05"/>
<polygon fill="black" stroke="black" points="418.86,-410.24 419.3,-399.65 412.35,-407.65 418.86,-410.24"/>
<text text-anchor="middle" x="422" y="-421.8" font-family="Times New Roman,serif" font-size="14.00">Yes</text>
</g>
<!-- Node_00000191fdb31750 -->
<g id="node10" class="node">
<title>Node_00000191fdb31750</title>
<polygon fill="none" stroke="black" points="144.5,-209.5 144.5,-278.5 267.5,-278.5 267.5,-209.5 144.5,-209.5"/>
<text text-anchor="middle" x="206" y="-263.3" font-family="Times New Roman,serif" font-size="14.00">00000191fdb317a0</text>
<polyline fill="none" stroke="black" points="144.5,-255.5 267.5,-255.5 "/>
<text text-anchor="middle" x="206" y="-240.3" font-family="Times New Roman,serif" font-size="14.00">Pink?</text>
<polyline fill="none" stroke="black" points="144.5,-232.5 267.5,-232.5 "/>
<text text-anchor="middle" x="206" y="-217.3" font-family="Times New Roman,serif" font-size="14.00">00000191fdb317f0</text>
</g>
<!-- Node_00000191fdb31700&#45;&gt;Node_00000191fdb31750 -->
<g id="edge9" class="edge">
<title>Node_00000191fdb31700:left&#45;&gt;Node_00000191fdb31750</title>
<path fill="none" stroke="black" d="M224,-388C213.86,-388 209.34,-330.64 207.39,-288.58"/>
<polygon fill="black" stroke="black" points="210.89,-288.37 206.96,-278.53 203.9,-288.67 210.89,-288.37"/>
<text text-anchor="middle" x="218" y="-300.8" font-family="Times New Roman,serif" font-size="14.00">No</text>
</g>
<!-- Node_00000191fdb31840 -->
<g id="node11" class="node">
<title>Node_00000191fdb31840</title>
<polygon fill="none" stroke="#ff6a6a" points="286,-226 286,-262 340,-262 340,-226 286,-226"/>
<text text-anchor="middle" x="313" y="-240.3" font-family="Times New Roman,serif" font-size="14.00">juice</text>
</g>
<!-- Node_00000191fdb31700&#45;&gt;Node_00000191fdb31840 -->
<g id="edge10" class="edge">
<title>Node_00000191fdb31700:right&#45;&gt;Node_00000191fdb31840</title>
<path fill="none" stroke="black" d="M287,-330C287,-309.81 293.79,-288.05 300.43,-271.61"/>
<polygon fill="black" stroke="black" points="303.78,-272.68 304.49,-262.11 297.34,-269.93 303.78,-272.68"/>
<text text-anchor="middle" x="303" y="-300.8" font-family="Times New Roman,serif" font-size="14.00">Yes</text>
</g>
<!-- Node_00000191fdb318e0 -->
<g id="node6" class="node">
<title>Node_00000191fdb318e0</title>
<polygon fill="none" stroke="black" points="367,-209.5 367,-278.5 491,-278.5 491,-209.5 367,-209.5"/>
<text text-anchor="middle" x="429" y="-263.3" font-family="Times New Roman,serif" font-size="14.00">00000191fdb31930</text>
<polyline fill="none" stroke="black" points="367,-255.5 491,-255.5 "/>
<text text-anchor="middle" x="429" y="-240.3" font-family="Times New Roman,serif" font-size="14.00">Is it a fruit?</text>
<polyline fill="none" stroke="black" points="367,-232.5 491,-232.5 "/>
<text text-anchor="middle" x="429" y="-217.3" font-family="Times New Roman,serif" font-size="14.00">NaN</text>
</g>
<!-- Node_00000191fdb31890&#45;&gt;Node_00000191fdb318e0 -->
<g id="edge5" class="edge">
<title>Node_00000191fdb31890:left&#45;&gt;Node_00000191fdb318e0</title>
<path fill="none" stroke="black" d="M429,-401C429,-407.83 485.71,-404.87 490.5,-400 521.05,-368.95 494.45,-320.87 467.33,-286.49"/>
<polygon fill="black" stroke="black" points="469.85,-284.05 460.82,-278.51 464.42,-288.47 469.85,-284.05"/>
<text text-anchor="middle" x="492" y="-300.8" font-family="Times New Roman,serif" font-size="14.00">No</text>
</g>
<!-- Node_00000191fdb31930 -->
<g id="node7" class="node">
<title>Node_00000191fdb31930</title>
<polygon fill="none" stroke="black" points="367,-88.5 367,-157.5 491,-157.5 491,-88.5 367,-88.5"/>
<text text-anchor="middle" x="429" y="-142.3" font-family="Times New Roman,serif" font-size="14.00">00000191fdb36160</text>
<polyline fill="none" stroke="black" points="367,-134.5 491,-134.5 "/>
<text text-anchor="middle" x="429" y="-119.3" font-family="Times New Roman,serif" font-size="14.00">quite?</text>
<polyline fill="none" stroke="black" points="367,-111.5 491,-111.5 "/>
<text text-anchor="middle" x="429" y="-96.3" font-family="Times New Roman,serif" font-size="14.00">00000191fdb31a30</text>
</g>
<!-- Node_00000191fdb318e0&#45;&gt;Node_00000191fdb31930 -->
<g id="edge6" class="edge">
<title>Node_00000191fdb318e0:left&#45;&gt;Node_00000191fdb31930</title>
<path fill="none" stroke="black" d="M429,-280C429,-286.89 486.17,-283.91 491,-279 521.49,-248.02 494.97,-200.14 467.78,-165.79"/>
<polygon fill="black" stroke="black" points="470.3,-163.34 461.26,-157.81 464.88,-167.77 470.3,-163.34"/>
<text text-anchor="middle" x="492" y="-179.8" font-family="Times New Roman,serif" font-size="14.00">No</text>
</g>
<!-- Node_00000191fdb36160 -->
<g id="node8" class="node">
<title>Node_00000191fdb36160</title>
<polygon fill="none" stroke="#ff6a6a" points="354.5,-0.5 354.5,-36.5 419.5,-36.5 419.5,-0.5 354.5,-0.5"/>
<text text-anchor="middle" x="387" y="-14.8" font-family="Times New Roman,serif" font-size="14.00">pumpkin</text>
</g>
<!-- Node_00000191fdb31930&#45;&gt;Node_00000191fdb36160 -->
<g id="edge7" class="edge">
<title>Node_00000191fdb31930:left&#45;&gt;Node_00000191fdb36160</title>
<path fill="none" stroke="black" d="M366,-146C325.74,-146 352.84,-82.88 372.22,-45.81"/>
<polygon fill="black" stroke="black" points="375.54,-47.03 377.18,-36.56 369.37,-43.72 375.54,-47.03"/>
<text text-anchor="middle" x="376" y="-58.8" font-family="Times New Roman,serif" font-size="14.00">No</text>
</g>
<!-- Node_00000191fdb31a30 -->
<g id="node9" class="node">
<title>Node_00000191fdb31a30</title>
<polygon fill="none" stroke="#ff6a6a" points="438,-0.5 438,-36.5 504,-36.5 504,-0.5 438,-0.5"/>
<text text-anchor="middle" x="471" y="-14.8" font-family="Times New Roman,serif" font-size="14.00">spaghetti</text>
</g>
<!-- Node_00000191fdb31930&#45;&gt;Node_00000191fdb31a30 -->
<g id="edge8" class="edge">
<title>Node_00000191fdb31930:right&#45;&gt;Node_00000191fdb31a30</title>
<path fill="none" stroke="black" d="M492,-100C515.05,-100 501.2,-68.71 487.49,-45.14"/>
<polygon fill="black" stroke="black" points="490.49,-43.33 482.33,-36.57 484.49,-46.94 490.49,-43.33"/>
<text text-anchor="middle" x="510" y="-58.8" font-family="Times New Roman,serif" font-size="14.00">Yes</text>
</g>
<!-- Node_00000191fdb317a0 -->
<g id="node12" class="node">
<title>Node_00000191fdb317a0</title>
<polygon fill="none" stroke="#ff6a6a" points="142,-105 142,-141 204,-141 204,-105 142,-105"/>
<text text-anchor="middle" x="173" y="-119.3" font-family="Times New Roman,serif" font-size="14.00">Sausage</text>
</g>
<!-- Node_00000191fdb31750&#45;&gt;Node_00000191fdb317a0 -->
<g id="edge11" class="edge">
<title>Node_00000191fdb31750:left&#45;&gt;Node_00000191fdb317a0</title>
<path fill="none" stroke="black" d="M143,-267C119.51,-267 145.72,-192.14 162,-150.74"/>
<polygon fill="black" stroke="black" points="165.34,-151.83 165.8,-141.25 158.84,-149.24 165.34,-151.83"/>
<text text-anchor="middle" x="161" y="-179.8" font-family="Times New Roman,serif" font-size="14.00">No</text>
</g>
<!-- Node_00000191fdb317f0 -->
<g id="node13" class="node">
<title>Node_00000191fdb317f0</title>
<polygon fill="none" stroke="#ff6a6a" points="222,-105 222,-141 276,-141 276,-105 222,-105"/>
<text text-anchor="middle" x="249" y="-119.3" font-family="Times New Roman,serif" font-size="14.00">Wine</text>
</g>
<!-- Node_00000191fdb31750&#45;&gt;Node_00000191fdb317f0 -->
<g id="edge12" class="edge">
<title>Node_00000191fdb31750:right&#45;&gt;Node_00000191fdb317f0</title>
<path fill="none" stroke="black" d="M269,-221C283.38,-221 270.43,-179.58 259.72,-150.88"/>
<polygon fill="black" stroke="black" points="262.92,-149.43 256.08,-141.34 256.38,-151.93 262.92,-149.43"/>
<text text-anchor="middle" x="284" y="-179.8" font-family="Times New Roman,serif" font-size="14.00">Yes</text>
</g>
<!-- Node_00000191fdb315c0 -->
<g id="node16" class="node">
<title>Node_00000191fdb315c0</title>
<polygon fill="none" stroke="black" points="0,-209.5 0,-278.5 124,-278.5 124,-209.5 0,-209.5"/>
<text text-anchor="middle" x="62" y="-263.3" font-family="Times New Roman,serif" font-size="14.00">00000191fdb31610</text>
<polyline fill="none" stroke="black" points="0,-255.5 124,-255.5 "/>
<text text-anchor="middle" x="62" y="-240.3" font-family="Times New Roman,serif" font-size="14.00">Is it an animal?</text>
<polyline fill="none" stroke="black" points="0,-232.5 124,-232.5 "/>
<text text-anchor="middle" x="62" y="-217.3" font-family="Times New Roman,serif" font-size="14.00">NaN</text>
</g>
<!-- Node_00000191fdb31570&#45;&gt;Node_00000191fdb315c0 -->
<g id="edge15" class="edge">
<title>Node_00000191fdb31570:left&#45;&gt;Node_00000191fdb315c0</title>
<path fill="none" stroke="black" d="M62,-401C62,-407.89 119.17,-404.91 124,-400 134.91,-388.91 128.82,-344.79 124,-330 118.99,-314.61 110.02,-299.7 100.43,-286.77"/>
<polygon fill="black" stroke="black" points="102.97,-284.33 94.08,-278.57 97.44,-288.62 102.97,-284.33"/>
<text text-anchor="middle" x="125" y="-300.8" font-family="Times New Roman,serif" font-size="14.00">No</text>
</g>
<!-- Node_00000191fdb31610 -->
<g id="node17" class="node">
<title>Node_00000191fdb31610</title>
<polygon fill="none" stroke="#ff6a6a" points="35,-105 35,-141 89,-141 89,-105 35,-105"/>
<text text-anchor="middle" x="62" y="-119.3" font-family="Times New Roman,serif" font-size="14.00">camel</text>
</g>
<!-- Node_00000191fdb315c0&#45;&gt;Node_00000191fdb31610 -->
<g id="edge16" class="edge">
<title>Node_00000191fdb315c0:left&#45;&gt;Node_00000191fdb31610</title>
<path fill="none" stroke="black" d="M62,-280C62,-286.89 119.17,-283.91 124,-279 134.91,-267.91 128.82,-223.79 124,-209 116.62,-186.37 100.7,-164.76 86.83,-148.99"/>
<polygon fill="black" stroke="black" points="89.15,-146.34 79.83,-141.3 83.98,-151.05 89.15,-146.34"/>
<text text-anchor="middle" x="125" y="-179.8" font-family="Times New Roman,serif" font-size="14.00">No</text>
</g>
</g>
</svg>
