<?xml version="1.0" encoding="UTF-8" standalone="no"?>
<!DOCTYPE svg PUBLIC "-//W3C//DTD SVG 1.1//EN"
 "http://www.w3.org/Graphics/SVG/1.1/DTD/svg11.dtd">
<!-- Generated by graphviz version 2.49.3 (20211023.0002)
 -->
<!-- Title: Tree Pages: 1 -->
<svg width="366pt" height="529pt"
 viewBox="0.00 0.00 365.50 529.00" xmlns="http://www.w3.org/2000/svg" xmlns:xlink="http://www.w3.org/1999/xlink">
<g id="graph0" class="graph" transform="scale(1 1) rotate(0) translate(4 525)">
<title>Tree</title>
<polygon fill="white" stroke="transparent" points="-4,4 -4,-525 361.5,-525 361.5,4 -4,4"/>
<!-- Node_000001a5ef461520 -->
<g id="node1" class="node">
<title>Node_000001a5ef461520</title>
<polygon fill="none" stroke="black" points="102,-451.5 102,-520.5 223,-520.5 223,-451.5 102,-451.5"/>
<text text-anchor="middle" x="162.5" y="-505.3" font-family="Times New Roman,serif" font-size="14.00">000001a5ef461570</text>
<polyline fill="none" stroke="black" points="102,-497.5 223,-497.5 "/>
<text text-anchor="middle" x="162.5" y="-482.3" font-family="Times New Roman,serif" font-size="14.00">Cool?</text>
<polyline fill="none" stroke="black" points="102,-474.5 223,-474.5 "/>
<text text-anchor="middle" x="162.5" y="-459.3" font-family="Times New Roman,serif" font-size="14.00">000001a5ef461660</text>
</g>
<!-- Node_000001a5ef461570 -->
<g id="node2" class="node">
<title>Node_000001a5ef461570</title>
<polygon fill="none" stroke="black" points="33,-330.5 33,-399.5 154,-399.5 154,-330.5 33,-330.5"/>
<text text-anchor="middle" x="93.5" y="-384.3" font-family="Times New Roman,serif" font-size="14.00">000001a5ef4615c0</text>
<polyline fill="none" stroke="black" points="33,-376.5 154,-376.5 "/>
<text text-anchor="middle" x="93.5" y="-361.3" font-family="Times New Roman,serif" font-size="14.00">Does it sleep?</text>
<polyline fill="none" stroke="black" points="33,-353.5 154,-353.5 "/>
<text text-anchor="middle" x="93.5" y="-338.3" font-family="Times New Roman,serif" font-size="14.00">000001a5ef461610</text>
</g>
<!-- Node_000001a5ef461520&#45;&gt;Node_000001a5ef461570 -->
<g id="edge1" class="edge">
<title>Node_000001a5ef461520:left&#45;&gt;Node_000001a5ef461570</title>
<path fill="none" stroke="black" d="M100.5,-509C60.12,-509 68.17,-451.4 79.45,-409.31"/>
<polygon fill="black" stroke="black" points="82.86,-410.1 82.2,-399.53 76.12,-408.21 82.86,-410.1"/>
<text text-anchor="middle" x="86.5" y="-421.8" font-family="Times New Roman,serif" font-size="14.00">No</text>
</g>
<!-- Node_000001a5ef461660 -->
<g id="node3" class="node">
<title>Node_000001a5ef461660</title>
<polygon fill="none" stroke="black" points="172.5,-330.5 172.5,-399.5 294.5,-399.5 294.5,-330.5 172.5,-330.5"/>
<text text-anchor="middle" x="233.5" y="-384.3" font-family="Times New Roman,serif" font-size="14.00">000001a5ef4616b0</text>
<polyline fill="none" stroke="black" points="172.5,-376.5 294.5,-376.5 "/>
<text text-anchor="middle" x="233.5" y="-361.3" font-family="Times New Roman,serif" font-size="14.00">Is it yummy?</text>
<polyline fill="none" stroke="black" points="172.5,-353.5 294.5,-353.5 "/>
<text text-anchor="middle" x="233.5" y="-338.3" font-family="Times New Roman,serif" font-size="14.00">000001a5ef461840</text>
</g>
<!-- Node_000001a5ef461520&#45;&gt;Node_000001a5ef461660 -->
<g id="edge2" class="edge">
<title>Node_000001a5ef461520:right&#45;&gt;Node_000001a5ef461660</title>
<path fill="none" stroke="black" d="M224.5,-463C247.57,-463 248.61,-435.46 244.55,-409.74"/>
<polygon fill="black" stroke="black" points="247.95,-408.86 242.7,-399.65 241.06,-410.12 247.95,-408.86"/>
<text text-anchor="middle" x="257.5" y="-421.8" font-family="Times New Roman,serif" font-size="14.00">Yes</text>
</g>
<!-- Node_000001a5ef4615c0 -->
<g id="node10" class="node">
<title>Node_000001a5ef4615c0</title>
<polygon fill="none" stroke="black" points="0,-226 0,-262 65,-262 65,-226 0,-226"/>
<text text-anchor="middle" x="32.5" y="-240.3" font-family="Times New Roman,serif" font-size="14.00">Program</text>
</g>
<!-- Node_000001a5ef461570&#45;&gt;Node_000001a5ef4615c0 -->
<g id="edge9" class="edge">
<title>Node_000001a5ef461570:left&#45;&gt;Node_000001a5ef4615c0</title>
<path fill="none" stroke="black" d="M31.5,-388C-14.49,-388 6.6,-313.14 21.77,-271.74"/>
<polygon fill="black" stroke="black" points="25.1,-272.84 25.36,-262.25 18.55,-270.36 25.1,-272.84"/>
<text text-anchor="middle" x="22.5" y="-300.8" font-family="Times New Roman,serif" font-size="14.00">No</text>
</g>
<!-- Node_000001a5ef461610 -->
<g id="node11" class="node">
<title>Node_000001a5ef461610</title>
<polygon fill="none" stroke="black" points="83.5,-226 83.5,-262 137.5,-262 137.5,-226 83.5,-226"/>
<text text-anchor="middle" x="110.5" y="-240.3" font-family="Times New Roman,serif" font-size="14.00">You</text>
</g>
<!-- Node_000001a5ef461570&#45;&gt;Node_000001a5ef461610 -->
<g id="edge10" class="edge">
<title>Node_000001a5ef461570:right&#45;&gt;Node_000001a5ef461610</title>
<path fill="none" stroke="black" d="M93.5,-330C93.5,-310.37 97.91,-288.68 102.24,-272.12"/>
<polygon fill="black" stroke="black" points="105.73,-272.63 105.03,-262.06 98.99,-270.76 105.73,-272.63"/>
<text text-anchor="middle" x="107.5" y="-300.8" font-family="Times New Roman,serif" font-size="14.00">Yes</text>
</g>
<!-- Node_000001a5ef4616b0 -->
<g id="node4" class="node">
<title>Node_000001a5ef4616b0</title>
<polygon fill="none" stroke="black" points="164,-209.5 164,-278.5 285,-278.5 285,-209.5 164,-209.5"/>
<text text-anchor="middle" x="224.5" y="-263.3" font-family="Times New Roman,serif" font-size="14.00">000001a5ef461700</text>
<polyline fill="none" stroke="black" points="164,-255.5 285,-255.5 "/>
<text text-anchor="middle" x="224.5" y="-240.3" font-family="Times New Roman,serif" font-size="14.00">Is it fresh?</text>
<polyline fill="none" stroke="black" points="164,-232.5 285,-232.5 "/>
<text text-anchor="middle" x="224.5" y="-217.3" font-family="Times New Roman,serif" font-size="14.00">000001a5ef4617f0</text>
</g>
<!-- Node_000001a5ef461660&#45;&gt;Node_000001a5ef4616b0 -->
<g id="edge3" class="edge">
<title>Node_000001a5ef461660:left&#45;&gt;Node_000001a5ef4616b0</title>
<path fill="none" stroke="black" d="M233.5,-401C233.5,-407.78 289.75,-404.83 294.5,-400 316.32,-377.82 305.01,-359.28 294.5,-330 288.83,-314.2 278.82,-299.25 268.11,-286.41"/>
<polygon fill="black" stroke="black" points="270.6,-283.94 261.39,-278.7 265.32,-288.54 270.6,-283.94"/>
<text text-anchor="middle" x="294.5" y="-300.8" font-family="Times New Roman,serif" font-size="14.00">No</text>
</g>
<!-- Node_000001a5ef461840 -->
<g id="node5" class="node">
<title>Node_000001a5ef461840</title>
<polygon fill="none" stroke="black" points="303.5,-226 303.5,-262 357.5,-262 357.5,-226 303.5,-226"/>
<text text-anchor="middle" x="330.5" y="-240.3" font-family="Times New Roman,serif" font-size="14.00">Algem</text>
</g>
<!-- Node_000001a5ef461660&#45;&gt;Node_000001a5ef461840 -->
<g id="edge4" class="edge">
<title>Node_000001a5ef461660:right&#45;&gt;Node_000001a5ef461840</title>
<path fill="none" stroke="black" d="M295.5,-342C325.19,-342 331.1,-301.3 331.58,-272.63"/>
<polygon fill="black" stroke="black" points="335.08,-272.33 331.54,-262.34 328.08,-272.36 335.08,-272.33"/>
<text text-anchor="middle" x="340.5" y="-300.8" font-family="Times New Roman,serif" font-size="14.00">Yes</text>
</g>
<!-- Node_000001a5ef461700 -->
<g id="node6" class="node">
<title>Node_000001a5ef461700</title>
<polygon fill="none" stroke="black" points="95,-88.5 95,-157.5 216,-157.5 216,-88.5 95,-88.5"/>
<text text-anchor="middle" x="155.5" y="-142.3" font-family="Times New Roman,serif" font-size="14.00">000001a5ef461750</text>
<polyline fill="none" stroke="black" points="95,-134.5 216,-134.5 "/>
<text text-anchor="middle" x="155.5" y="-119.3" font-family="Times New Roman,serif" font-size="14.00">Pink?</text>
<polyline fill="none" stroke="black" points="95,-111.5 216,-111.5 "/>
<text text-anchor="middle" x="155.5" y="-96.3" font-family="Times New Roman,serif" font-size="14.00">000001a5ef4617a0</text>
</g>
<!-- Node_000001a5ef4616b0&#45;&gt;Node_000001a5ef461700 -->
<g id="edge5" class="edge">
<title>Node_000001a5ef4616b0:left&#45;&gt;Node_000001a5ef461700</title>
<path fill="none" stroke="black" d="M162.5,-267C152.43,-267 152.3,-209.64 153.57,-167.58"/>
<polygon fill="black" stroke="black" points="157.07,-167.64 153.91,-157.53 150.07,-167.4 157.07,-167.64"/>
<text text-anchor="middle" x="162.5" y="-179.8" font-family="Times New Roman,serif" font-size="14.00">No</text>
</g>
<!-- Node_000001a5ef4617f0 -->
<g id="node7" class="node">
<title>Node_000001a5ef4617f0</title>
<polygon fill="none" stroke="black" points="234.5,-105 234.5,-141 288.5,-141 288.5,-105 234.5,-105"/>
<text text-anchor="middle" x="261.5" y="-119.3" font-family="Times New Roman,serif" font-size="14.00">juice</text>
</g>
<!-- Node_000001a5ef4616b0&#45;&gt;Node_000001a5ef4617f0 -->
<g id="edge6" class="edge">
<title>Node_000001a5ef4616b0:right&#45;&gt;Node_000001a5ef4617f0</title>
<path fill="none" stroke="black" d="M286.5,-221C301.05,-221 285.91,-179.58 273.67,-150.88"/>
<polygon fill="black" stroke="black" points="276.72,-149.11 269.51,-141.34 270.3,-151.91 276.72,-149.11"/>
<text text-anchor="middle" x="299.5" y="-179.8" font-family="Times New Roman,serif" font-size="14.00">Yes</text>
</g>
<!-- Node_000001a5ef461750 -->
<g id="node8" class="node">
<title>Node_000001a5ef461750</title>
<polygon fill="none" stroke="black" points="86.5,-0.5 86.5,-36.5 148.5,-36.5 148.5,-0.5 86.5,-0.5"/>
<text text-anchor="middle" x="117.5" y="-14.8" font-family="Times New Roman,serif" font-size="14.00">Sausage</text>
</g>
<!-- Node_000001a5ef461700&#45;&gt;Node_000001a5ef461750 -->
<g id="edge7" class="edge">
<title>Node_000001a5ef461700:left&#45;&gt;Node_000001a5ef461750</title>
<path fill="none" stroke="black" d="M93.5,-146C52.9,-146 81.98,-82.34 102.31,-45.34"/>
<polygon fill="black" stroke="black" points="105.4,-46.99 107.25,-36.56 99.3,-43.56 105.4,-46.99"/>
<text text-anchor="middle" x="105.5" y="-58.8" font-family="Times New Roman,serif" font-size="14.00">No</text>
</g>
<!-- Node_000001a5ef4617a0 -->
<g id="node9" class="node">
<title>Node_000001a5ef4617a0</title>
<polygon fill="none" stroke="black" points="166.5,-0.5 166.5,-36.5 220.5,-36.5 220.5,-0.5 166.5,-0.5"/>
<text text-anchor="middle" x="193.5" y="-14.8" font-family="Times New Roman,serif" font-size="14.00">Wine</text>
</g>
<!-- Node_000001a5ef461700&#45;&gt;Node_000001a5ef4617a0 -->
<g id="edge8" class="edge">
<title>Node_000001a5ef461700:right&#45;&gt;Node_000001a5ef4617a0</title>
<path fill="none" stroke="black" d="M217.5,-100C229.04,-100 217.15,-69.26 206.38,-45.77"/>
<polygon fill="black" stroke="black" points="209.48,-44.13 202.06,-36.57 203.15,-47.11 209.48,-44.13"/>
<text text-anchor="middle" x="227.5" y="-58.8" font-family="Times New Roman,serif" font-size="14.00">Yes</text>
</g>
</g>
</svg>
